<svg width="3000" height="3000" viewBox="0 0 3000 3000" fill="none" xmlns="http://www.w3.org/2000/svg">
<path d="M225 1929.89V1929.53C224.98 1929.59 224.96 1929.65 224.95 1929.71C224.93 1929.65 224.91 1929.59 224.9 1929.53V1929.89C220.19 1946.98 209.3 1959.2 192.23 1966.55C209.3 1973.9 220.19 1986.12 224.9 2003.21V2003.57C224.92 2003.51 224.94 2003.45 224.95 2003.39C224.97 2003.45 224.99 2003.51 225 2003.57V2003.21C229.71 1986.12 240.6 1973.9 257.67 1966.55C240.6 1959.2 229.71 1946.98 225 1929.89Z" fill="#BABABA"/>
<path d="M460.94 362.173V361.812C460.92 361.872 460.9 361.932 460.89 361.992C460.87 361.932 460.85 361.872 460.84 361.812V362.173C456.13 379.263 445.24 391.482 428.17 398.832C445.24 406.182 456.13 418.402 460.84 435.492V435.853C460.86 435.793 460.88 435.733 460.89 435.673C460.91 435.733 460.93 435.793 460.94 435.853V435.492C465.65 418.402 476.54 406.182 493.61 398.832C476.54 391.482 465.65 379.263 460.94 362.173Z" fill="#BABABA"/>
<path d="M2568 1929.89V1929.53C2567.98 1929.59 2567.96 1929.65 2567.95 1929.71C2567.93 1929.65 2567.91 1929.59 2567.9 1929.53V1929.89C2563.19 1946.98 2552.3 1959.2 2535.23 1966.55C2552.3 1973.9 2563.19 1986.12 2567.9 2003.21V2003.57C2567.92 2003.51 2567.94 2003.45 2567.95 2003.39C2567.97 2003.45 2567.99 2003.51 2568 2003.57V2003.21C2572.71 1986.12 2583.6 1973.9 2600.67 1966.55C2583.6 1959.2 2572.71 1946.98 2568 1929.89Z" fill="#BABABA"/>
<path d="M2501.05 800.321V799.961C2501.03 800.021 2501.01 800.081 2501 800.141C2500.98 800.081 2500.96 800.021 2500.95 799.961V800.321C2496.24 817.411 2485.35 829.631 2468.28 836.981C2485.35 844.331 2496.24 856.551 2500.95 873.641V874.001C2500.97 873.941 2500.99 873.881 2501 873.821C2501.02 873.881 2501.04 873.941 2501.05 874.001V873.641C2505.76 856.551 2516.65 844.331 2533.72 836.981C2516.65 829.631 2505.76 817.411 2501.05 800.321Z" fill="#BABABA"/>
<path d="M2167.94 331.118V330.758C2167.92 330.818 2167.9 330.878 2167.89 330.938C2167.87 330.878 2167.85 330.818 2167.84 330.758V331.118C2163.13 348.208 2152.24 360.428 2135.17 367.778C2152.24 375.128 2163.13 387.348 2167.84 404.438V404.798C2167.86 404.738 2167.88 404.678 2167.89 404.618C2167.91 404.678 2167.93 404.738 2167.94 404.798V404.438C2172.65 387.348 2183.54 375.128 2200.61 367.778C2183.54 360.428 2172.65 348.208 2167.94 331.118Z" fill="#BABABA"/>
<path d="M735.29 512.621V511.891C735.26 512.021 735.22 512.131 735.19 512.261C735.16 512.131 735.12 512.021 735.09 511.891V512.621C725.67 546.791 703.89 571.241 669.75 585.941C703.89 600.641 725.66 625.091 735.09 659.261V659.991C735.12 659.861 735.16 659.751 735.19 659.621C735.22 659.751 735.26 659.861 735.29 659.991V659.261C744.71 625.091 766.49 600.641 800.63 585.941C766.49 571.241 744.72 546.791 735.29 512.621Z" fill="#BABABA"/>
<path d="M2218.26 2173.49V2172.76C2218.23 2172.89 2218.19 2173 2218.16 2173.13C2218.13 2173 2218.09 2172.89 2218.06 2172.76V2173.49C2208.64 2207.66 2186.86 2232.11 2152.72 2246.81C2186.86 2261.51 2208.63 2285.96 2218.06 2320.13V2320.86C2218.09 2320.73 2218.13 2320.62 2218.16 2320.49C2218.19 2320.62 2218.23 2320.73 2218.26 2320.86V2320.13C2227.68 2285.96 2249.46 2261.51 2283.6 2246.81C2249.46 2232.11 2227.69 2207.66 2218.26 2173.49Z" fill="#BABABA"/>
<path d="M2600.77 331.488V330.758C2600.74 330.888 2600.7 330.998 2600.67 331.128C2600.64 330.998 2600.6 330.888 2600.57 330.758V331.488C2591.15 365.658 2569.37 390.108 2535.23 404.808C2569.37 419.508 2591.14 443.958 2600.57 478.128V478.858C2600.6 478.728 2600.64 478.618 2600.67 478.488C2600.7 478.618 2600.74 478.728 2600.77 478.858V478.128C2610.19 443.958 2631.97 419.508 2666.11 404.808C2631.97 390.108 2610.2 365.658 2600.77 331.488Z" fill="#BABABA"/>
<path d="M1168.37 1637.03C1168.37 1637.03 970.1 1347.89 885.71 1271.55C801.16 1195.06 490.11 1044.63 490.11 1044.63L381.14 1269.26C381.14 1269.26 621.06 1459.31 678.75 1542.15C762.18 1661.96 842.5 1897.99 1007.94 1959.64C1173.37 2021.28 1318.17 1994.73 1453.62 1865.46C1589.07 1736.19 1720.28 1578.46 1720.28 1578.46C1676.61 1333.76 1456.26 1259.38 1166.61 1284.77C1166.61 1284.77 1102.45 1346.79 1031.42 1446.15" fill="white"/>
<path d="M1169.57 1996.43C1117.76 1996.43 1063.75 1985.78 1006.18 1964.32C951.42 1943.92 901.14 1903.1 852.48 1839.54C810.24 1784.37 774.47 1718.9 742.9 1661.14C719.28 1617.92 696.98 1577.1 674.63 1545.01C618.02 1463.72 380.42 1275.08 378.02 1273.18C376.18 1271.72 375.6 1269.19 376.63 1267.08L485.6 1042.45C486.8 1039.97 489.79 1038.93 492.28 1040.13C505.01 1046.29 804.94 1191.75 889.06 1267.84C924.57 1299.96 979.37 1368.44 1031.37 1437.63C1100.26 1342.27 1162.49 1281.78 1163.12 1281.17C1163.94 1280.37 1165.02 1279.88 1166.16 1279.78C1320.17 1266.28 1445.21 1281.77 1537.83 1325.81C1641.11 1374.92 1704.15 1459.63 1725.2 1577.58C1725.46 1579.03 1725.06 1580.52 1724.12 1581.66C1722.81 1583.24 1591.18 1741.09 1457.07 1869.08C1423.17 1901.43 1388 1927.9 1352.54 1947.74C1317.23 1967.51 1280.38 1981.4 1243.02 1989.04C1218.95 1993.96 1194.51 1996.43 1169.57 1996.43ZM387.38 1267.84C417.02 1291.45 628.3 1460.97 682.84 1539.29C705.49 1571.82 727.93 1612.88 751.68 1656.34C783.07 1713.79 818.65 1778.89 860.42 1833.46C907.91 1895.48 956.73 1935.22 1009.67 1954.95C1093.14 1986.05 1168.82 1994 1241.01 1979.24C1314.77 1964.16 1383.18 1925.76 1450.16 1861.84C1576.16 1741.59 1700 1594.86 1714.93 1577.05C1704.32 1519.35 1683.18 1469.49 1652.09 1428.81C1622.16 1389.64 1582.26 1358.03 1533.53 1334.85C1442.9 1291.75 1320.2 1276.53 1168.82 1289.6C1159.63 1298.7 1101.33 1357.45 1037.65 1446.02C1106.02 1537.45 1167.95 1627.59 1172.49 1634.21C1174.05 1636.49 1173.47 1639.6 1171.19 1641.16C1168.91 1642.72 1165.8 1642.14 1164.24 1639.86C1162.26 1636.97 965.34 1350.34 882.34 1275.26C804.8 1205.11 530.93 1070.14 492.41 1051.32L387.38 1267.84Z" fill="black"/>
<path d="M1168.16 948.378L1506.67 999.068L1304.3 1237.99C1304.3 1237.99 985.84 1190 931.16 1134.62C876.33 1079.08 862.28 982.998 899.04 912.768C942.54 829.658 1043.67 701.758 1043.67 701.758L1222.08 769.988C1222.08 769.988 1161.4 1000.53 1121.29 1054.21" fill="white"/>
<path d="M1304.3 1242.99C1304.05 1242.99 1303.8 1242.97 1303.55 1242.93C1290.48 1240.96 982.81 1194.05 927.6 1138.13C900.32 1110.5 881.93 1072.07 875.81 1029.92C869.69 987.751 876.36 945.311 894.61 910.441C937.83 827.871 1038.73 699.931 1039.75 698.641C1041.1 696.931 1043.41 696.291 1045.46 697.071L1223.87 765.301C1226.25 766.211 1227.57 768.771 1226.92 771.241C1226.77 771.821 1211.49 829.721 1191.5 893.441C1185.74 911.811 1180.19 928.771 1174.86 944.311L1507.41 994.111C1509.2 994.381 1510.71 995.601 1511.35 997.291C1511.99 998.991 1511.66 1000.9 1510.49 1002.28L1308.12 1241.2C1307.16 1242.33 1305.76 1242.97 1304.31 1242.97L1304.3 1242.99ZM1045.33 707.741C1030.14 727.181 942.66 840.211 903.47 915.081C886.19 948.101 879.88 988.371 885.7 1028.48C891.52 1068.53 908.92 1104.98 934.72 1131.1C984.96 1181.99 1271.03 1227.75 1302.29 1232.61L1497.05 1002.68L1171.53 953.931C1153.37 1005.72 1137.88 1040.35 1125.3 1057.19C1123.65 1059.4 1120.51 1059.86 1118.3 1058.2C1116.09 1056.55 1115.63 1053.41 1117.29 1051.2C1153.37 1002.92 1207.52 804.931 1216.1 773.031L1045.34 707.731L1045.33 707.741Z" fill="black"/>
<path d="M2129.69 817.905C2152.11 651.626 2028.14 497.662 1852.79 474.016C1677.44 450.37 1517.12 565.998 1494.7 732.277C1472.27 898.556 1596.24 1052.52 1771.59 1076.17C1946.94 1099.81 2107.27 984.184 2129.69 817.905Z" fill="white"/>
<path d="M1817.32 1084.22C1801.93 1084.22 1786.42 1083.18 1770.88 1081.09C1684.8 1069.48 1608.15 1026.77 1555.04 960.819C1501.87 894.789 1478.66 813.379 1489.69 731.589C1500.72 649.799 1544.66 577.439 1613.41 527.849C1682.09 478.319 1767.32 457.429 1853.4 469.039C1939.48 480.649 2016.14 523.359 2069.24 589.309C2122.41 655.339 2145.62 736.749 2134.59 818.539C2123.56 900.329 2079.62 972.689 2010.87 1022.28C1954.59 1062.87 1887.19 1084.23 1817.32 1084.23V1084.22ZM1806.97 475.909C1739.18 475.909 1673.83 496.609 1619.26 535.969C1552.75 583.939 1510.25 653.889 1499.6 732.939C1488.94 811.989 1511.4 890.689 1562.83 954.559C1614.32 1018.51 1688.69 1059.93 1772.22 1071.19C1855.75 1082.45 1938.43 1062.2 2005.02 1014.18C2071.53 966.209 2114.03 896.259 2124.68 817.209C2135.34 738.159 2112.88 659.459 2061.45 595.589C2009.96 531.639 1935.59 490.219 1852.06 478.959C1836.97 476.929 1821.91 475.919 1806.97 475.919V475.909Z" fill="black"/>
<path d="M1494.64 732.264C1472.45 896.834 1593.68 1049.32 1766.18 1075.35C1875.92 1037.7 1953.09 941.104 1991.06 805.694C2018.08 709.304 2014 598.894 1996.25 528.754C1955 500.604 1906.27 481.224 1852.73 474.004C1677.38 450.364 1517.06 565.994 1494.64 732.274V732.264Z" fill="#393F4F"/>
<path d="M1766.18 1080.34C1765.93 1080.34 1765.68 1080.32 1765.43 1080.28C1680.68 1067.49 1605.4 1024.37 1553.48 958.851C1501.43 893.181 1478.78 812.471 1489.68 731.581C1500.71 649.791 1544.65 577.431 1613.4 527.841C1682.08 478.311 1767.31 457.421 1853.39 469.031C1905.75 476.091 1956.12 495.311 1999.06 524.601C2000.07 525.291 2000.79 526.321 2001.09 527.501C2010.48 564.591 2015.57 610.711 2015.44 657.371C2015.29 710.141 2008.52 761.891 1995.87 807.021C1976.58 875.841 1947.48 934.151 1909.39 980.341C1870.36 1027.66 1822.73 1061.21 1767.8 1080.06C1767.28 1080.24 1766.73 1080.33 1766.18 1080.33V1080.34ZM1806.97 475.901C1739.18 475.901 1673.83 496.601 1619.26 535.961C1552.75 583.931 1510.25 653.881 1499.6 732.931C1489.06 811.101 1510.98 889.131 1561.33 952.651C1611.43 1015.86 1683.98 1057.58 1765.72 1070.22C1818.38 1051.91 1864.12 1019.54 1901.68 974.001C1938.88 928.901 1967.33 871.821 1986.25 804.341C1998.66 760.071 2005.3 709.241 2005.45 657.361C2005.58 612.281 2000.76 567.791 1991.86 531.811C1950.55 503.981 1902.26 485.721 1852.06 478.951C1836.97 476.921 1821.91 475.911 1806.97 475.911V475.901Z" fill="black"/>
<path d="M1141.8 1279.93C1216.44 1132.1 1337 1017.55 1489.78 987.922C1639.97 991.572 1751.83 1028.75 1886.84 1091.67C2077.29 1040.48 2301.78 1097.77 2533.72 1178.81L2463.17 1333.99C2286.72 1293.55 2093.82 1312.02 1909.64 1409.58L1695.14 1642.89C1569.56 1449.97 1388.51 1324.83 1141.8 1279.91V1279.93Z" fill="white"/>
<path d="M1695.14 1647.9C1695 1647.9 1694.86 1647.9 1694.72 1647.88C1693.18 1647.75 1691.79 1646.92 1690.95 1645.63C1627.91 1548.79 1550.59 1469.54 1461.12 1410.07C1369.09 1348.9 1261.35 1306.77 1140.9 1284.84C1139.35 1284.56 1138.02 1283.56 1137.32 1282.15C1136.62 1280.74 1136.62 1279.08 1137.33 1277.67C1176.25 1200.58 1225.33 1136.03 1283.2 1085.82C1345.18 1032.04 1414.36 997.454 1488.82 983.014C1489.17 982.944 1489.53 982.914 1489.89 982.924C1643.38 986.654 1755.91 1025.25 1887.29 1086.37C1975.91 1062.88 2076.76 1061.03 2195.53 1080.72C2291.07 1096.56 2395.88 1125.35 2535.36 1174.09C2536.69 1174.55 2537.76 1175.55 2538.31 1176.84C2538.86 1178.13 2538.85 1179.6 2538.26 1180.87L2467.71 1336.05C2466.73 1338.21 2464.36 1339.39 2462.04 1338.85C2275.91 1296.19 2085.97 1322.03 1912.73 1413.58L1698.81 1646.26C1697.86 1647.29 1696.52 1647.88 1695.13 1647.88L1695.14 1647.9ZM1149.3 1276.23C1268.43 1298.73 1375.18 1340.94 1466.66 1401.75C1555.6 1460.86 1632.67 1539.25 1695.8 1634.8L1905.96 1406.21C1906.34 1405.79 1906.8 1405.44 1907.3 1405.18C2081.67 1312.82 2272.8 1286.24 2460.3 1328.23L2526.9 1181.74C2390.55 1134.29 2287.67 1106.14 2193.9 1090.59C2075.79 1071.01 1975.77 1072.95 1888.13 1096.5C1886.99 1096.81 1885.79 1096.7 1884.72 1096.2C1753.95 1035.25 1642.31 996.714 1490.19 992.934C1417.68 1007.09 1350.24 1040.88 1289.75 1093.37C1234.36 1141.43 1187.12 1202.93 1149.29 1276.23H1149.3Z" fill="black"/>
<path d="M1909.64 1414.59C1908.38 1414.59 1907.12 1414.12 1906.14 1413.16C1881.63 1389.2 1863.48 1362.44 1852.2 1333.63C1843.16 1310.54 1838.49 1286.11 1838.32 1261.02C1838.04 1218.29 1850.8 1188.77 1851.34 1187.54C1852.45 1185.01 1855.4 1183.86 1857.93 1184.97C1860.46 1186.08 1861.61 1189.03 1860.5 1191.55C1860.38 1191.84 1847.97 1220.69 1848.33 1261.39C1848.54 1285.19 1853.01 1308.35 1861.62 1330.24C1872.39 1357.62 1889.72 1383.11 1913.13 1406C1915.1 1407.93 1915.14 1411.1 1913.21 1413.07C1912.23 1414.07 1910.93 1414.57 1909.63 1414.57L1909.64 1414.59Z" fill="black"/>
<path d="M2047.05 836.924C2050.44 811.784 2041.46 787.844 2024.8 771.204L2026.37 759.584C2026.37 759.584 1984.72 749.714 1980.08 749.084C1937.33 743.324 1898 773.304 1892.24 816.054C1886.48 858.804 1916.76 896.234 1959.21 903.894C1970.89 906.004 2005.5 914.394 2005.5 914.394L2008.19 894.414C2028.66 882.774 2043.66 862.064 2047.05 836.924Z" fill="white"/>
<path d="M2005.5 919.388C2005.11 919.388 2004.71 919.338 2004.32 919.248C2003.98 919.168 1969.72 910.868 1958.32 908.808C1936.34 904.838 1916.94 893.258 1903.69 876.188C1890.17 858.768 1884.34 837.178 1887.28 815.378C1893.4 769.968 1935.33 737.998 1980.75 744.118C1985.5 744.758 2023.24 753.688 2027.52 754.708C2030.02 755.298 2031.67 757.698 2031.32 760.238L2030.08 769.448C2047.41 787.798 2055.39 812.488 2052 837.578C2048.62 862.668 2034.39 884.368 2012.82 897.478L2010.45 915.058C2010.26 916.458 2009.49 917.718 2008.32 918.518C2007.48 919.088 2006.5 919.388 2005.5 919.388ZM1969.6 753.368C1933.59 753.368 1902.14 780.058 1897.2 816.708C1894.62 835.828 1899.74 854.768 1911.6 870.058C1923.33 885.168 1940.56 895.438 1960.1 898.968C1969.11 900.598 1991.04 905.778 2001.29 908.228L2003.24 893.728C2003.45 892.178 2004.37 890.818 2005.72 890.048C2025.76 878.658 2039.02 859.038 2042.1 836.238C2045.17 813.438 2037.58 791.018 2021.27 774.718C2020.17 773.618 2019.64 772.058 2019.85 770.508L2020.81 763.378C2004.34 759.498 1982.36 754.408 1979.41 754.008C1976.11 753.568 1972.83 753.348 1969.59 753.348L1969.6 753.368Z" fill="black"/>
<path d="M2015.94 915.087C2059.08 915.087 2094.05 880.116 2094.05 836.977C2094.05 793.838 2059.08 758.867 2015.94 758.867C1972.8 758.867 1937.83 793.838 1937.83 836.977C1937.83 880.116 1972.8 915.087 2015.94 915.087Z" fill="white"/>
<path d="M2015.99 920.091C2012.31 920.091 2008.58 919.841 2004.83 919.341C1982.83 916.371 1963.3 905.021 1949.84 887.371C1936.38 869.721 1930.6 847.881 1933.57 825.881C1936.54 803.881 1947.89 784.351 1965.54 770.891C1983.19 757.431 2005.03 751.651 2027.03 754.621C2072.44 760.741 2104.41 802.671 2098.29 848.091C2092.67 889.751 2056.92 920.101 2015.99 920.101V920.091ZM2015.78 763.861C1999.87 763.861 1984.48 769.031 1971.61 778.841C1956.08 790.681 1946.09 807.861 1943.48 827.211C1940.87 846.561 1945.95 865.771 1957.79 881.301C1969.63 896.831 1986.81 906.821 2006.16 909.431C2046.11 914.821 2082.99 886.701 2088.38 846.751C2093.77 806.801 2065.65 769.921 2025.7 764.531C2022.38 764.081 2019.07 763.861 2015.78 763.861Z" fill="black"/>
<path d="M2512.17 1155.44C2441.11 1221.4 2413.9 1275.31 2422.44 1355.56L2494.16 1389.49C2494.16 1389.49 2521.38 1470.15 2536.64 1493.83C2548.88 1512.83 2598.82 1559.45 2598.82 1559.45C2615.49 1557.08 2622.07 1549.17 2625.63 1539.62C2609.1 1506.73 2595.13 1473.14 2585.49 1438.36C2585.49 1438.36 2645.19 1471.23 2648.98 1473.81C2652.77 1476.39 2702.62 1523.63 2728.18 1541.03C2753.44 1558.23 2800.05 1517.54 2817.81 1486.12C2844.98 1438.06 2861.41 1388.68 2861.41 1388.68C2861.41 1388.68 2800.48 1297.24 2785.59 1287.01C2760.36 1269.68 2655.14 1238.8 2645.16 1236.08C2635.18 1233.36 2512.16 1155.45 2512.16 1155.45L2512.17 1155.44Z" fill="#003912"/>
<path d="M2598.82 1564.44C2597.56 1564.44 2596.34 1563.96 2595.41 1563.09C2593.35 1561.17 2544.88 1515.82 2532.44 1496.53C2518.2 1474.44 2494.53 1406.04 2490.11 1393.1L2420.31 1360.08C2418.73 1359.33 2417.66 1357.82 2417.48 1356.09C2409.04 1276.76 2433.78 1221.38 2508.78 1151.78C2510.44 1150.24 2512.94 1150.01 2514.86 1151.22C2561.83 1180.97 2639.12 1229 2646.52 1231.26C2647.61 1231.56 2761.13 1264.12 2788.44 1282.89C2803.68 1293.36 2859.29 1376.47 2865.58 1385.91C2866.43 1387.19 2866.65 1388.8 2866.16 1390.26C2865.99 1390.76 2849.26 1440.66 2822.16 1488.58C2815.14 1501 2804.04 1514.45 2791.71 1525.5C2781.99 1534.2 2767.15 1545.34 2751.62 1548.96C2741.41 1551.34 2732.57 1550.07 2725.37 1545.16C2706.63 1532.4 2674.96 1503.79 2657.95 1488.42C2652.38 1483.39 2647.12 1478.63 2646.13 1477.92C2643.87 1476.38 2616.5 1461.18 2593.67 1448.58C2602.3 1476.74 2614.27 1505.91 2630.08 1537.37C2630.7 1538.61 2630.78 1540.06 2630.3 1541.36C2625.29 1554.8 2615.51 1562.12 2599.51 1564.4C2599.27 1564.43 2599.04 1564.45 2598.8 1564.45L2598.82 1564.44ZM2427.13 1352.25L2496.3 1384.97C2497.53 1385.55 2498.47 1386.61 2498.9 1387.89C2499.17 1388.69 2526.1 1468.24 2540.84 1491.12C2551.33 1507.39 2591.5 1545.67 2600.45 1554.12C2608.26 1552.72 2615.75 1549.62 2620.14 1539.83C2602.39 1504.24 2589.47 1471.46 2580.67 1439.69C2580.13 1437.75 2580.81 1435.68 2582.39 1434.43C2583.97 1433.18 2586.14 1433 2587.9 1433.97C2594.03 1437.35 2647.92 1467.03 2651.79 1469.67C2653.02 1470.51 2655.94 1473.13 2664.65 1481C2681.48 1496.21 2712.81 1524.52 2730.99 1536.9C2735.79 1540.17 2741.96 1540.95 2749.34 1539.23C2772.61 1533.8 2800.74 1506.16 2813.45 1483.67C2836.77 1442.41 2852.29 1399.65 2855.87 1389.41C2831.49 1352.93 2792.9 1298.11 2782.76 1291.15C2758.95 1274.79 2657.46 1244.63 2643.85 1240.92C2634.12 1238.26 2539.24 1178.5 2512.75 1161.75C2443.5 1226.82 2420.04 1279.03 2427.12 1352.27L2427.13 1352.25Z" fill="black"/>
<path d="M2774.76 1525.26C2773.38 1525.26 2772.02 1524.7 2771.03 1523.59L2688.42 1431.01L2631.33 1405.12C2628.82 1403.98 2627.7 1401.02 2628.84 1398.5C2629.98 1395.99 2632.94 1394.87 2635.46 1396.01L2693.51 1422.33C2694.14 1422.62 2694.71 1423.03 2695.18 1423.55L2778.5 1516.92C2780.34 1518.98 2780.16 1522.14 2778.1 1523.98C2777.15 1524.83 2775.96 1525.25 2774.77 1525.25L2774.76 1525.26Z" fill="black"/>
<path d="M2831.26 1428.42C2829.87 1428.42 2828.49 1427.84 2827.5 1426.72L2750.02 1338.5L2704.89 1313.54C2702.47 1312.2 2701.6 1309.16 2702.93 1306.74C2704.27 1304.32 2707.31 1303.45 2709.73 1304.78L2755.62 1330.16C2756.12 1330.44 2756.58 1330.8 2756.96 1331.24L2835.02 1420.12C2836.84 1422.19 2836.64 1425.35 2834.56 1427.18C2833.61 1428.01 2832.43 1428.42 2831.26 1428.42Z" fill="black"/>
<path d="M2809.63 1481.88C2808.22 1481.88 2806.82 1481.29 2805.83 1480.13L2727.2 1388.28L2669.58 1357.64C2667.14 1356.34 2666.22 1353.32 2667.51 1350.88C2668.81 1348.44 2671.83 1347.52 2674.27 1348.81L2732.72 1379.9C2733.27 1380.19 2733.76 1380.59 2734.17 1381.06L2813.42 1473.63C2815.22 1475.73 2814.97 1478.88 2812.87 1480.68C2811.93 1481.49 2810.77 1481.88 2809.62 1481.88H2809.63Z" fill="black"/>
<path d="M1014.49 711.993C1085.87 777.613 1157.08 805.913 1236.4 791.053L1249.23 711.423C1249.23 711.423 1327.49 677.903 1349.88 660.813C1367.85 647.103 1410.37 593.633 1410.37 593.633C1406.68 577.203 1398.28 571.273 1388.48 568.483C1357 587.563 1333.62 600.763 1299.71 613.123C1299.71 613.123 1318.76 554.403 1321.03 550.413C1323.3 546.433 1361.68 476.563 1377.01 449.703C1392.15 423.153 1321.37 384.943 1288.64 369.723C1238.58 346.443 1173.5 335.593 1160.55 344.693C1137.19 361.103 1114.65 431.953 1108.54 446.343C1096.58 474.523 1086.28 562.873 1084.36 573.033C1082.43 583.193 1014.51 712.003 1014.51 712.003L1014.49 711.993Z" fill="#003912"/>
<path d="M1195.45 799.951C1170.17 799.951 1145.47 795.451 1120.75 786.391C1084.17 772.991 1048.3 749.861 1011.11 715.671C1009.44 714.131 1009.01 711.661 1010.07 709.661C1036 660.481 1077.77 579.631 1079.43 572.071C1079.79 570.171 1080.55 564.721 1081.51 557.831C1085.6 528.511 1094.11 467.491 1103.92 444.371C1104.94 441.951 1106.5 437.741 1108.48 432.411C1118.49 405.361 1137.12 355.001 1157.66 340.581C1167.91 333.381 1195.84 337.211 1211.58 340.131C1238.37 345.111 1267.22 354.231 1290.74 365.171C1299.69 369.331 1322.75 380.501 1343.49 394.251C1365.84 409.071 1379.1 422.631 1382.9 434.541C1384.92 440.881 1384.4 446.811 1381.34 452.161C1370.29 471.531 1346.94 513.831 1334.39 536.561C1329.34 545.701 1326.01 551.741 1325.36 552.881C1323.88 555.771 1314.76 583.101 1307.68 604.741C1337.33 593.091 1359.17 580.381 1385.87 564.191C1387.06 563.471 1388.49 563.281 1389.83 563.661C1403.62 567.591 1411.69 576.761 1415.23 592.531C1415.56 594.011 1415.21 595.551 1414.26 596.741C1412.51 598.941 1371.14 650.861 1352.89 664.781C1332.3 680.491 1267.59 708.901 1253.71 714.921L1241.32 791.841C1240.98 793.921 1239.38 795.571 1237.3 795.961C1223.11 798.621 1209.18 799.951 1195.43 799.951H1195.45ZM1020.72 710.901C1055.91 742.761 1089.79 764.401 1124.19 777.001C1159.54 789.951 1194.85 793.141 1232.03 786.751L1244.29 710.611C1244.56 708.921 1245.68 707.481 1247.26 706.811C1248.04 706.481 1325.2 673.341 1346.84 656.821C1362.23 645.071 1397.2 602.001 1404.92 592.401C1402.9 584.731 1399.22 577.501 1389.11 573.911C1359.99 591.531 1336.26 605.101 1301.4 617.791C1299.61 618.441 1297.59 618.021 1296.22 616.691C1294.84 615.361 1294.35 613.371 1294.94 611.551C1299.45 597.661 1314.33 552.021 1316.67 547.911C1317.28 546.831 1320.79 540.491 1325.63 531.721C1338.19 508.971 1361.57 466.631 1372.65 447.201C1374.28 444.341 1374.52 441.191 1373.37 437.571C1367.03 417.681 1322.62 391.021 1286.52 374.231C1232.08 348.921 1172.49 342.381 1163.41 348.761C1145.42 361.391 1126.8 411.701 1117.86 435.881C1115.84 441.341 1114.25 445.651 1113.13 448.281C1103.84 470.181 1095.45 530.311 1091.42 559.211C1090.36 566.781 1089.67 571.781 1089.26 573.951C1087.38 583.861 1035.33 683.161 1020.72 710.901Z" fill="black"/>
<path d="M587.73 1063.26C518.9 1144.96 468.33 1238.21 434.72 1342.18C434.72 1342.18 308.99 1255.2 300.07 1254C291.15 1252.8 231.88 1249.99 185.45 1238.55C139.01 1227.1 113.94 1182.23 123.84 1147.25C133.74 1112.28 311.8 782.267 320.05 769.117C328.31 755.967 376.95 770.307 392.89 786.717C408.83 803.127 410.67 973.257 419.31 986.087C427.95 998.927 587.72 1063.26 587.72 1063.26H587.73Z" fill="#003912"/>
<path d="M434.71 1347.18C433.71 1347.18 432.71 1346.88 431.86 1346.29C385.05 1313.91 307.89 1261.73 299.2 1258.93C297.44 1258.71 293.57 1258.4 288.71 1258.01C266.97 1256.27 221.74 1252.65 184.24 1243.4C160.23 1237.48 139.55 1222.19 127.49 1201.46C117.14 1183.66 114.06 1163.41 119.02 1145.89C124.41 1126.85 175.89 1027.59 218.14 947.67C263.75 861.37 311.28 773.69 315.82 766.46C318.39 762.36 323.15 759.92 329.95 759.2C348.99 757.19 383.19 769.55 396.48 783.24C406.27 793.32 410.35 839.76 415.47 909.47C417.72 940.15 420.53 978.34 423.48 983.33C424.77 984.98 434.92 993.09 509.47 1025.21C549.71 1042.55 589.2 1058.46 589.59 1058.62C591.08 1059.22 592.19 1060.49 592.57 1062.05C592.96 1063.61 592.57 1065.25 591.54 1066.48C524.3 1146.29 473.13 1239.57 439.46 1343.72C438.97 1345.22 437.8 1346.41 436.31 1346.92C435.79 1347.1 435.25 1347.18 434.71 1347.18ZM334.45 768.97C333.23 768.97 332.08 769.03 330.99 769.14C327.55 769.5 325.11 770.46 324.28 771.77C313.93 788.25 138.08 1115.26 128.64 1148.61C124.41 1163.54 127.15 1180.96 136.14 1196.43C146.84 1214.84 165.25 1228.42 186.63 1233.69C223.35 1242.74 268.03 1246.32 289.51 1248.04C295.11 1248.49 298.81 1248.78 300.73 1249.04C303.08 1249.36 307.46 1249.95 373.52 1294.39C397.74 1310.68 421.58 1327.06 432.04 1334.26C465.37 1233.72 514.95 1143.3 579.49 1065.31C566.56 1060.05 535.83 1047.46 504.78 1034.07C421.39 998.11 417.03 991.64 415.16 988.87C411.19 982.97 409.26 961.49 405.49 910.19C403.62 884.68 401.49 855.77 398.75 832.83C394.69 798.95 390.79 791.73 389.3 790.19C378.86 779.44 351.16 768.96 334.45 768.96V768.97Z" fill="black"/>
<path d="M1150.98 516.999C1150.56 516.999 1150.13 516.949 1149.71 516.839C1147.04 516.139 1145.44 513.409 1146.14 510.739C1146.52 509.269 1155.62 474.599 1162.02 456.019C1168.45 437.339 1210.04 351.529 1211.81 347.889C1213.02 345.409 1216.01 344.369 1218.49 345.569C1220.97 346.779 1222.01 349.769 1220.81 352.249C1220.38 353.139 1177.71 441.159 1171.48 459.269C1165.21 477.489 1155.91 512.909 1155.82 513.269C1155.23 515.519 1153.2 516.999 1150.99 516.999H1150.98Z" fill="black"/>
<path d="M1203.92 538.42C1203.48 538.42 1203.04 538.36 1202.6 538.24C1199.94 537.51 1198.37 534.76 1199.09 532.1C1199.53 530.48 1209.97 492.28 1216.36 473.73C1222.79 455.05 1264.38 369.24 1266.15 365.6C1267.36 363.12 1270.35 362.08 1272.83 363.28C1275.31 364.49 1276.35 367.48 1275.15 369.96C1274.72 370.85 1232.05 458.87 1225.82 476.98C1219.54 495.23 1208.85 534.34 1208.74 534.73C1208.13 536.95 1206.12 538.41 1203.92 538.41V538.42Z" fill="black"/>
<path d="M1261.5 557.852C1261.06 557.852 1260.61 557.792 1260.17 557.672C1257.51 556.932 1255.95 554.182 1256.68 551.522C1256.76 551.232 1264.75 522.392 1271.13 503.852C1277.61 485.012 1326.03 399.982 1328.09 396.372C1329.46 393.972 1332.51 393.132 1334.91 394.502C1337.31 395.872 1338.15 398.922 1336.78 401.322C1336.28 402.202 1286.77 489.142 1280.59 507.102C1274.31 525.352 1266.4 553.902 1266.32 554.182C1265.71 556.402 1263.7 557.852 1261.5 557.852Z" fill="black"/>
<path d="M1059.82 1193.12C1059.06 1193.12 1058.28 1192.94 1057.55 1192.57C1055.09 1191.32 1054.11 1188.31 1055.36 1185.85C1055.44 1185.69 1063.63 1169.23 1066.49 1141.89C1069.12 1116.69 1067.63 1076.8 1045.56 1029.86C1023.48 982.887 984.55 954.887 955.77 939.667C924.49 923.127 898.31 917.717 898.05 917.667C895.34 917.117 893.59 914.487 894.14 911.777C894.69 909.067 897.33 907.317 900.03 907.867C901.15 908.097 927.91 913.617 960.45 930.827C990.57 946.757 1031.36 976.137 1054.61 1025.61C1077.77 1074.87 1079.23 1116.89 1076.38 1143.46C1073.27 1172.47 1064.64 1189.67 1064.28 1190.38C1063.4 1192.11 1061.64 1193.11 1059.82 1193.11V1193.12Z" fill="black"/>
<path d="M884.141 2638.19C951.884 2638.19 1006.8 2583.27 1006.8 2515.53C1006.8 2447.78 951.884 2392.87 884.141 2392.87C816.397 2392.87 761.48 2447.78 761.48 2515.53C761.48 2583.27 816.397 2638.19 884.141 2638.19Z" fill="#BABABA"/>
<path d="M884.23 2643.19C878.57 2643.19 872.85 2642.81 867.09 2642.04C797.33 2632.64 748.23 2568.23 757.63 2498.47C767.03 2428.71 831.44 2379.61 901.2 2389.01C934.99 2393.57 964.99 2411.01 985.66 2438.12C1006.33 2465.24 1015.21 2498.78 1010.65 2532.57C1002.02 2596.57 947.1 2643.18 884.23 2643.18V2643.19ZM884.06 2397.86C826.1 2397.86 775.49 2440.82 767.54 2499.81C758.87 2564.1 804.13 2623.46 868.42 2632.13C873.73 2632.85 879.01 2633.19 884.22 2633.19C942.18 2633.19 992.79 2590.23 1000.74 2531.24C1004.94 2500.09 996.76 2469.18 977.7 2444.19C958.64 2419.2 931 2403.12 899.85 2398.92C894.54 2398.2 889.26 2397.86 884.05 2397.86H884.06Z" fill="black"/>
<path d="M884.14 2563.92C910.865 2563.92 932.53 2542.26 932.53 2515.53C932.53 2488.81 910.865 2467.14 884.14 2467.14C857.415 2467.14 835.75 2488.81 835.75 2515.53C835.75 2542.26 857.415 2563.92 884.14 2563.92Z" fill="#393F4F"/>
<path d="M884.25 2568.93C881.85 2568.93 879.43 2568.77 877.01 2568.44C847.83 2564.51 827.29 2537.57 831.23 2508.39C835.16 2479.21 862.1 2458.67 891.28 2462.61C905.41 2464.52 917.96 2471.81 926.61 2483.15C935.26 2494.49 938.97 2508.52 937.06 2522.66C935.15 2536.79 927.86 2549.34 916.52 2557.99C907.12 2565.16 895.88 2568.93 884.26 2568.93H884.25ZM884.11 2472.13C862.73 2472.13 844.07 2487.97 841.13 2509.73C837.93 2533.44 854.62 2555.34 878.34 2558.53C889.83 2560.08 901.23 2557.06 910.45 2550.03C919.67 2543 925.6 2532.81 927.15 2521.32C928.7 2509.83 925.68 2498.43 918.65 2489.21C911.62 2479.99 901.43 2474.06 889.94 2472.51C887.98 2472.25 886.03 2472.12 884.11 2472.12V2472.13Z" fill="black"/>
<path d="M1313.62 2696.09C1381.36 2696.09 1436.28 2641.18 1436.28 2573.43C1436.28 2505.69 1381.36 2450.77 1313.62 2450.77C1245.88 2450.77 1190.96 2505.69 1190.96 2573.43C1190.96 2641.18 1245.88 2696.09 1313.62 2696.09Z" fill="#BABABA"/>
<path d="M1313.88 2701.11C1308.13 2701.11 1302.35 2700.72 1296.56 2699.94C1226.8 2690.53 1177.7 2626.13 1187.1 2556.37C1196.5 2486.61 1260.92 2437.51 1330.67 2446.91C1400.43 2456.31 1449.53 2520.72 1440.13 2590.48C1435.57 2624.27 1418.13 2654.27 1391.01 2674.94C1368.54 2692.07 1341.66 2701.1 1313.88 2701.1V2701.11ZM1313.53 2455.76C1255.57 2455.76 1204.96 2498.72 1197.01 2557.71C1188.34 2622 1233.6 2681.36 1297.89 2690.03C1329.04 2694.23 1359.95 2686.05 1384.94 2666.99C1409.93 2647.94 1426.01 2620.29 1430.21 2589.14C1438.88 2524.85 1393.62 2465.49 1329.33 2456.82C1324.02 2456.1 1318.74 2455.76 1313.53 2455.76Z" fill="black"/>
<path d="M1313.62 2621.82C1340.35 2621.82 1362.01 2600.15 1362.01 2573.43C1362.01 2546.7 1340.35 2525.04 1313.62 2525.04C1286.9 2525.04 1265.23 2546.7 1265.23 2573.43C1265.23 2600.15 1286.9 2621.82 1313.62 2621.82Z" fill="#393F4F"/>
<path d="M1313.65 2626.82C1311.28 2626.82 1308.89 2626.66 1306.48 2626.34C1277.3 2622.41 1256.76 2595.47 1260.7 2566.29C1264.64 2537.11 1291.57 2516.57 1320.75 2520.51C1349.93 2524.44 1370.47 2551.38 1366.53 2580.56C1362.92 2607.33 1339.95 2626.82 1313.65 2626.82ZM1313.58 2530.02C1292.2 2530.02 1273.54 2545.86 1270.6 2567.62C1267.4 2591.33 1284.09 2613.23 1307.81 2616.42C1331.52 2619.62 1353.42 2602.93 1356.61 2579.21C1359.81 2555.5 1343.12 2533.6 1319.4 2530.41C1317.44 2530.15 1315.49 2530.02 1313.57 2530.02H1313.58Z" fill="black"/>
<path d="M2165.85 1317.63C2159.64 1301.01 2141.12 1292.58 2124.51 1298.79C2057.95 1323.67 2004.86 1350.98 1962.18 1382.27C1912.87 1418.43 1876.36 1460.22 1850.88 1509.76L538.329 1332.81C465.419 1322.98 400.389 1379.27 399.659 1452.83L396.649 1757.09C395.389 1884.26 489.039 1992.45 615.069 2009.44L1527.44 2132.44C1653.47 2149.43 1772.43 2069.9 1804.89 1946.94L1916.65 1523.61C1958.33 1453.9 2030.69 1402.45 2147.01 1358.95C2163.63 1352.74 2172.06 1334.23 2165.85 1317.61V1317.63ZM668.019 1951.76L623.649 1945.78C538.449 1934.29 472.879 1866.44 462.369 1783.15L686.679 1813.39L668.019 1951.77V1951.76ZM695.259 1749.71L461.279 1718.17L462.689 1576.11L714.089 1610L695.249 1749.71H695.259ZM463.329 1511.36L463.899 1453.47C464.069 1436.58 471.189 1421.18 483.969 1410.13C496.739 1399.07 512.999 1394.23 529.739 1396.49L739.069 1424.71L722.669 1546.33L463.319 1511.37L463.329 1511.36ZM1022.27 1999.52L731.689 1960.34L750.349 1821.96L1040.93 1861.14L1022.27 1999.52ZM1049.51 1797.47L758.929 1758.29L777.769 1618.58L1068.35 1657.76L1049.51 1797.47ZM786.349 1554.91L802.749 1433.29L1093.33 1472.47L1076.93 1594.09L786.349 1554.91ZM1394.62 2049.72L1085.94 2008.11L1104.6 1869.73L1413.28 1911.34L1394.62 2049.72ZM1421.86 1847.67L1113.18 1806.06L1132.02 1666.35L1440.7 1707.96L1421.86 1847.67ZM1140.6 1602.67L1157 1481.05L1465.68 1522.66L1449.28 1644.28L1140.6 1602.67ZM1536.01 2068.78L1458.29 2058.3L1476.95 1919.92L1734.6 1954.66C1702.4 2032.19 1621.21 2080.26 1536.01 2068.78ZM1752.85 1892.29L1485.53 1856.25L1504.37 1716.54L1789.12 1754.93L1752.86 1892.29H1752.85ZM1805.64 1692.32L1512.95 1652.86L1529.35 1531.24L1837.21 1572.75L1805.64 1692.32Z" fill="white"/>
<path d="M1561.17 2139.72C1549.72 2139.72 1538.23 2138.96 1526.76 2137.41L614.39 2014.41C552.23 2006.03 495.38 1975.29 454.33 1927.87C413.28 1880.44 391.01 1819.78 391.63 1757.06L394.64 1452.8C395 1416.3 411.04 1381.67 438.64 1357.78C466.24 1333.89 502.81 1322.99 538.98 1327.87L1848.05 1504.35C1873.83 1455.45 1910.22 1414.17 1959.21 1378.25C2002.26 1346.68 2055.75 1319.16 2122.74 1294.11C2132.03 1290.64 2142.11 1290.99 2151.13 1295.1C2160.15 1299.21 2167.04 1306.59 2170.51 1315.88C2177.68 1335.06 2167.91 1356.49 2148.74 1363.66C2090.35 1385.49 2043.9 1409 2006.72 1435.54C1969.84 1461.87 1941.88 1491.33 1921.28 1525.59L1809.7 1948.23C1793.69 2008.88 1756.15 2061.48 1704.01 2096.34C1661.49 2124.77 1611.77 2139.72 1561.16 2139.72H1561.17ZM522 1336.71C493.97 1336.71 466.64 1346.76 445.2 1365.33C419.77 1387.34 404.99 1419.25 404.66 1452.89L401.65 1757.15C401.05 1817.43 422.45 1875.74 461.91 1921.32C501.37 1966.9 556 1996.44 615.74 2004.5L1528.11 2127.5C1587.85 2135.55 1648.36 2121.54 1698.48 2088.03C1748.6 2054.52 1784.67 2003.97 1800.06 1945.68L1911.82 1522.35C1911.94 1521.9 1912.12 1521.46 1912.36 1521.06C1933.72 1485.34 1962.69 1454.7 2000.94 1427.4C2038.84 1400.35 2086.05 1376.43 2145.27 1354.29C2159.28 1349.05 2166.41 1333.39 2161.18 1319.38C2158.64 1312.59 2153.61 1307.2 2147.02 1304.2C2140.43 1301.2 2133.06 1300.94 2126.27 1303.48C2060.15 1328.2 2007.45 1355.29 1965.15 1386.31C1916.4 1422.06 1880.48 1463.19 1855.34 1512.05C1854.37 1513.93 1852.32 1515 1850.23 1514.72L537.68 1337.77C532.46 1337.07 527.22 1336.72 522.02 1336.72L522 1336.71ZM1561.13 2075.46C1552.59 2075.46 1543.99 2074.89 1535.35 2073.73L1457.63 2063.25C1456.32 2063.07 1455.13 2062.38 1454.32 2061.33C1453.52 2060.28 1453.16 2058.94 1453.34 2057.63L1472 1919.25C1472.37 1916.51 1474.89 1914.59 1477.62 1914.96L1735.27 1949.7C1736.81 1949.91 1738.16 1950.82 1738.94 1952.16C1739.71 1953.51 1739.82 1955.14 1739.22 1956.57C1709.07 2029.17 1638.12 2075.46 1561.12 2075.46H1561.13ZM1536.69 2063.82C1616.59 2074.59 1694.05 2031.58 1727.38 1958.73L1481.24 1925.55L1463.92 2054.02L1536.68 2063.83L1536.69 2063.82ZM1394.64 2054.71C1394.42 2054.71 1394.19 2054.7 1393.97 2054.66L1085.3 2013.05C1082.56 2012.68 1080.64 2010.16 1081.01 2007.43L1099.67 1869.05C1099.85 1867.74 1100.54 1866.55 1101.59 1865.74C1102.64 1864.94 1103.98 1864.58 1105.29 1864.76L1413.97 1906.37C1415.28 1906.55 1416.47 1907.24 1417.28 1908.29C1418.08 1909.34 1418.44 1910.68 1418.26 1911.99L1399.6 2050.37C1399.26 2052.88 1397.12 2054.7 1394.65 2054.7L1394.64 2054.71ZM1091.58 2003.81L1390.34 2044.09L1407.66 1915.62L1108.89 1875.34L1091.57 2003.81H1091.58ZM1022.29 2004.51C1022.07 2004.51 1021.84 2004.5 1021.62 2004.46L731.04 1965.28C729.73 1965.1 728.54 1964.41 727.73 1963.36C726.93 1962.31 726.57 1960.97 726.75 1959.66L745.41 1821.28C745.78 1818.54 748.3 1816.62 751.03 1816.99L1041.61 1856.17C1042.92 1856.35 1044.11 1857.04 1044.92 1858.09C1045.72 1859.14 1046.08 1860.48 1045.9 1861.79L1027.24 2000.17C1026.9 2002.68 1024.76 2004.5 1022.29 2004.5V2004.51ZM737.33 1956.05L1018 1993.89L1035.32 1865.42L754.65 1827.58L737.33 1956.05ZM668.03 1956.75C667.81 1956.75 667.58 1956.74 667.36 1956.71L622.99 1950.73C536.44 1939.06 468.35 1870.4 457.42 1783.77C457.23 1782.23 457.76 1780.69 458.86 1779.59C459.96 1778.5 461.51 1777.98 463.05 1778.19L687.36 1808.43C690.1 1808.8 692.02 1811.32 691.65 1814.05L672.99 1952.43C672.81 1953.74 672.12 1954.93 671.07 1955.74C670.19 1956.41 669.13 1956.76 668.04 1956.76L668.03 1956.75ZM468.27 1788.97C481.12 1868.05 544.43 1930.04 624.32 1940.81L663.74 1946.12L681.06 1817.65L468.27 1788.96V1788.97ZM1752.87 1897.28C1752.65 1897.28 1752.42 1897.27 1752.2 1897.23L1484.88 1861.19C1483.57 1861.01 1482.38 1860.32 1481.57 1859.27C1480.77 1858.22 1480.41 1856.88 1480.59 1855.57L1499.43 1715.86C1499.8 1713.12 1502.32 1711.21 1505.05 1711.57L1789.8 1749.96C1791.22 1750.15 1792.49 1750.94 1793.29 1752.14C1794.09 1753.33 1794.33 1754.81 1793.97 1756.2L1757.71 1893.56C1757.12 1895.78 1755.12 1897.28 1752.88 1897.28H1752.87ZM1491.17 1851.95L1749.16 1886.73L1782.85 1759.11L1508.67 1722.15L1491.17 1851.95ZM1421.88 1852.65C1421.66 1852.65 1421.43 1852.64 1421.21 1852.6L1112.53 1810.99C1111.22 1810.81 1110.03 1810.12 1109.22 1809.07C1108.42 1808.02 1108.06 1806.68 1108.24 1805.37L1127.08 1665.66C1127.45 1662.92 1129.97 1661 1132.7 1661.37L1441.38 1702.98C1442.69 1703.16 1443.88 1703.85 1444.69 1704.9C1445.49 1705.95 1445.85 1707.29 1445.67 1708.6L1426.83 1848.31C1426.49 1850.82 1424.35 1852.64 1421.88 1852.64V1852.65ZM1118.82 1801.75L1417.59 1842.03L1435.09 1712.23L1136.32 1671.95L1118.82 1801.75ZM1049.52 1802.45C1049.3 1802.45 1049.07 1802.44 1048.85 1802.41L758.27 1763.23C756.96 1763.05 755.77 1762.36 754.96 1761.31C754.16 1760.26 753.8 1758.92 753.98 1757.61L772.82 1617.9C773.19 1615.16 775.71 1613.24 778.44 1613.61L1069.02 1652.79C1071.76 1653.16 1073.68 1655.68 1073.31 1658.41L1054.48 1798.12C1054.3 1799.43 1053.61 1800.62 1052.56 1801.43C1051.68 1802.1 1050.62 1802.45 1049.53 1802.45H1049.52ZM764.56 1753.99L1045.23 1791.83L1062.73 1662.03L782.06 1624.19L764.56 1753.99ZM695.27 1754.69C695.05 1754.69 694.82 1754.68 694.6 1754.64L460.62 1723.1C458.12 1722.76 456.26 1720.62 456.29 1718.1L457.7 1576.04C457.71 1574.61 458.34 1573.25 459.43 1572.31C460.52 1571.37 461.95 1570.94 463.37 1571.14L714.77 1605.03C716.08 1605.21 717.27 1605.9 718.08 1606.95C718.88 1608 719.24 1609.34 719.06 1610.65L700.22 1750.36C699.88 1752.87 697.74 1754.69 695.27 1754.69ZM466.33 1713.78L690.97 1744.07L708.47 1614.27L467.63 1581.8L466.32 1713.78H466.33ZM1805.66 1697.31C1805.44 1697.31 1805.21 1697.3 1804.99 1697.26L1512.3 1657.8C1510.99 1657.62 1509.8 1656.93 1508.99 1655.88C1508.19 1654.83 1507.83 1653.49 1508.01 1652.18L1524.41 1530.56C1524.59 1529.25 1525.28 1528.06 1526.33 1527.25C1527.38 1526.45 1528.71 1526.09 1530.03 1526.27L1837.89 1567.78C1839.31 1567.97 1840.58 1568.76 1841.38 1569.96C1842.18 1571.15 1842.42 1572.63 1842.06 1574.02L1810.49 1693.59C1809.9 1695.81 1807.9 1697.31 1805.66 1697.31ZM1518.59 1648.56L1801.95 1686.76L1830.94 1576.93L1533.64 1536.85L1518.58 1648.56H1518.59ZM1449.3 1649.26C1449.08 1649.26 1448.85 1649.25 1448.63 1649.21L1139.95 1607.6C1138.64 1607.42 1137.45 1606.73 1136.64 1605.68C1135.84 1604.63 1135.48 1603.29 1135.66 1601.98L1152.06 1480.36C1152.43 1477.62 1154.95 1475.7 1157.68 1476.07L1466.36 1517.68C1467.67 1517.86 1468.86 1518.55 1469.67 1519.6C1470.47 1520.65 1470.83 1521.99 1470.65 1523.3L1454.25 1644.92C1453.91 1647.43 1451.77 1649.25 1449.3 1649.25V1649.26ZM1146.24 1598.36L1445.01 1638.64L1460.07 1526.93L1161.3 1486.65L1146.24 1598.36ZM1076.95 1599.06C1076.73 1599.06 1076.5 1599.05 1076.28 1599.01L785.7 1559.83C784.39 1559.65 783.2 1558.96 782.39 1557.91C781.59 1556.86 781.23 1555.52 781.41 1554.21L797.81 1432.59C798.18 1429.85 800.7 1427.93 803.43 1428.3L1094.01 1467.48C1095.32 1467.66 1096.51 1468.35 1097.32 1469.4C1098.12 1470.45 1098.48 1471.79 1098.3 1473.1L1081.9 1594.72C1081.56 1597.23 1079.42 1599.05 1076.95 1599.05V1599.06ZM791.99 1550.6L1072.66 1588.44L1087.72 1476.73L807.05 1438.89L791.99 1550.6ZM722.7 1551.3C722.48 1551.3 722.25 1551.29 722.03 1551.25L462.68 1516.29C460.18 1515.95 458.32 1513.81 458.35 1511.29L458.92 1453.4C459.1 1435.05 466.84 1418.34 480.71 1406.33C494.58 1394.32 512.24 1389.06 530.42 1391.51L739.75 1419.73C741.06 1419.91 742.25 1420.6 743.06 1421.65C743.86 1422.7 744.22 1424.04 744.04 1425.35L727.64 1546.97C727.3 1549.48 725.16 1551.3 722.69 1551.3H722.7ZM468.39 1506.97L718.41 1540.68L733.47 1428.97L529.09 1401.42C513.79 1399.36 498.93 1403.79 487.26 1413.89C475.59 1423.99 469.07 1438.06 468.92 1453.5L468.39 1506.97Z" fill="black"/>
<path d="M2264.96 1283.98L2184.64 1273.14C2166.99 1270.76 2150.76 1283.14 2148.38 1300.79L2143.61 1336.17C2141.23 1353.81 2153.6 1370.05 2171.25 1372.43L2251.57 1383.26C2269.22 1385.64 2285.45 1373.26 2287.83 1355.62L2292.6 1320.24C2294.98 1302.59 2282.61 1286.36 2264.96 1283.98Z" fill="#BABABA"/>
<path d="M2256.01 1388.5C2254.33 1388.5 2252.65 1388.39 2250.96 1388.16L2170.63 1377.33C2150.28 1374.59 2135.96 1355.8 2138.7 1335.45L2143.47 1300.06C2144.8 1290.2 2149.89 1281.45 2157.8 1275.42C2165.71 1269.39 2175.5 1266.8 2185.35 1268.13L2265.68 1278.96C2275.54 1280.29 2284.29 1285.38 2290.32 1293.29C2296.35 1301.2 2298.94 1310.98 2297.61 1320.84L2292.84 1356.23C2291.51 1366.09 2286.42 1374.84 2278.51 1380.87C2271.96 1385.87 2264.11 1388.5 2256.01 1388.5ZM2252.29 1378.25C2259.5 1379.22 2266.66 1377.33 2272.44 1372.92C2278.23 1368.51 2281.95 1362.11 2282.92 1354.9L2287.69 1319.51C2288.66 1312.3 2286.77 1305.14 2282.36 1299.36C2277.95 1293.57 2271.55 1289.85 2264.34 1288.88L2184.01 1278.05C2176.8 1277.08 2169.64 1278.97 2163.86 1283.38C2158.07 1287.79 2154.35 1294.19 2153.38 1301.4L2148.61 1336.79C2146.6 1351.67 2157.08 1365.41 2171.96 1367.42L2252.29 1378.25Z" fill="black"/>
<path d="M535.72 1424.17L593.42 1430.55C610.83 1432.48 626.6 1420.16 628.94 1402.79L635.73 1352.39C638.11 1334.73 625.73 1318.49 608.07 1316.11L461.02 1296.28C416.62 1290.29 376.41 1323.11 373.37 1367.81L362.82 1522.98C361.63 1540.45 374.6 1555.68 392.03 1557.29L454.89 1563.11C472.24 1564.72 487.73 1552.26 489.88 1534.96L500.16 1452.24C502.34 1434.73 518.18 1422.21 535.72 1424.15V1424.17Z" fill="#BABABA"/>
<path d="M457.97 1568.28C456.8 1568.28 455.62 1568.23 454.43 1568.12L391.57 1562.3C371.27 1560.42 356.45 1543.01 357.83 1522.67L368.38 1367.5C369.94 1344.48 380.65 1323.78 398.52 1309.19C416.39 1294.61 438.82 1288.27 461.69 1291.35L608.74 1311.18C618.6 1312.51 627.36 1317.6 633.39 1325.52C639.42 1333.44 642.02 1343.23 640.69 1353.09L633.9 1403.49C631.37 1422.29 615.61 1435.78 597.11 1435.78C595.71 1435.78 594.3 1435.7 592.87 1435.55L535.17 1429.16C520.43 1427.53 506.95 1438.18 505.12 1452.9L494.84 1535.62C492.49 1554.53 476.63 1568.29 457.96 1568.29L457.97 1568.28ZM450.44 1300.58C433.86 1300.58 417.96 1306.23 404.85 1316.92C389.14 1329.74 379.74 1347.93 378.36 1368.16L367.81 1523.33C366.8 1538.21 377.64 1550.95 392.49 1552.32L455.35 1558.14C470.11 1559.51 483.09 1549.06 484.92 1534.36L495.2 1451.64C497.7 1431.52 516.13 1416.97 536.28 1419.2L593.98 1425.59C608.82 1427.23 622 1416.93 624 1402.14L630.79 1351.74C631.76 1344.52 629.87 1337.36 625.45 1331.57C621.03 1325.78 614.63 1322.05 607.41 1321.08L460.36 1301.25C457.04 1300.8 453.73 1300.58 450.44 1300.58Z" fill="black"/>
<path d="M1510.15 2476.16L613.621 2355.29C596.041 2352.92 583.701 2336.74 586.071 2319.16C588.441 2301.58 604.621 2289.24 622.201 2291.61L1494.81 2409.25C1507.4 2375.58 1509.14 2341.89 1500.2 2306.87C1490.22 2267.78 1466.4 2226.51 1429.36 2184.06L665.911 2081.13C648.331 2078.76 635.991 2062.58 638.361 2045C640.731 2027.42 656.911 2015.08 674.491 2017.45L1449.71 2121.96C1457.19 2122.97 1464.08 2126.58 1469.16 2132.16C1571.13 2244.05 1596.01 2353.94 1543.12 2458.77C1536.95 2470.99 1523.71 2477.97 1510.15 2476.14V2476.16Z" fill="white"/>
<path d="M1514.45 2481.44C1512.8 2481.44 1511.15 2481.33 1509.49 2481.11L612.96 2360.24C603.13 2358.92 594.41 2353.84 588.4 2345.96C582.39 2338.07 579.81 2328.32 581.13 2318.49C583.87 2298.2 602.6 2283.92 622.88 2286.66L1491.49 2403.76C1502.49 2372.29 1503.75 2340.96 1495.36 2308.11C1485.69 2270.25 1462.64 2230.11 1426.83 2188.77L665.25 2086.1C644.96 2083.36 630.68 2064.63 633.42 2044.35C636.15 2024.06 654.88 2009.78 675.17 2012.52L1450.39 2117.03C1459.02 2118.19 1467 2122.38 1472.87 2128.82C1576.38 2242.4 1601.52 2354.18 1547.59 2461.05C1541.22 2473.67 1528.31 2481.45 1514.45 2481.45V2481.44ZM617.89 2296.32C604.53 2296.32 592.86 2306.22 591.03 2319.82C590.06 2327 591.95 2334.13 596.34 2339.89C600.73 2345.65 607.11 2349.36 614.29 2350.33L1510.82 2471.2C1522.27 2472.74 1533.46 2466.85 1538.66 2456.54C1590.53 2353.75 1565.9 2245.75 1465.47 2135.55C1461.18 2130.85 1455.35 2127.79 1449.05 2126.94L673.83 2022.43C659.02 2020.44 645.32 2030.87 643.32 2045.69C641.32 2060.51 651.76 2074.2 666.58 2076.2L1430.03 2179.13C1431.23 2179.29 1432.33 2179.88 1433.13 2180.8C1470.68 2223.83 1494.88 2265.84 1505.05 2305.66C1514.29 2341.85 1512.48 2376.32 1499.5 2411.03C1498.68 2413.22 1496.46 2414.55 1494.15 2414.23L621.54 2296.59C620.32 2296.43 619.1 2296.34 617.9 2296.34L617.89 2296.32Z" fill="black"/>
<path d="M595.424 2255.67L699.869 2269.76C709.551 2271.06 716.359 2279.99 715.053 2289.68L704.639 2366.91C703.333 2376.59 694.403 2383.4 684.721 2382.09L580.276 2368.01C556.154 2364.76 539.212 2342.53 542.465 2318.41L545.825 2293.5C549.078 2269.37 571.301 2252.43 595.423 2255.68L595.424 2255.67Z" fill="#BABABA"/>
<path d="M687.22 2387.25C686.2 2387.25 685.17 2387.18 684.14 2387.04L579.69 2372.96C566.69 2371.21 555.15 2364.5 547.2 2354.07C539.25 2343.64 535.83 2330.74 537.59 2317.74L540.95 2292.82C542.7 2279.82 549.41 2268.28 559.84 2260.33C570.27 2252.38 583.17 2248.96 596.17 2250.72L700.62 2264.8C706.63 2265.61 711.97 2268.71 715.65 2273.54C719.33 2278.37 720.91 2284.33 720.1 2290.34L709.69 2367.57C708.88 2373.58 705.78 2378.92 700.95 2382.6C696.95 2385.65 692.17 2387.25 687.23 2387.25H687.22ZM589.53 2260.27C581.02 2260.27 572.79 2263.04 565.9 2268.28C557.59 2274.61 552.25 2283.8 550.86 2294.15L547.5 2319.07C546.1 2329.42 548.82 2339.7 555.16 2348C561.49 2356.31 570.68 2361.65 581.03 2363.04L685.48 2377.12C688.85 2377.57 692.18 2376.69 694.88 2374.63C697.58 2372.57 699.32 2369.58 699.77 2366.22L710.18 2288.99C710.63 2285.63 709.75 2282.29 707.69 2279.59C705.63 2276.89 702.65 2275.15 699.28 2274.7L594.83 2260.62C593.06 2260.38 591.28 2260.26 589.52 2260.26L589.53 2260.27Z" fill="black"/>
</svg>
