<svg width="319" height="173" viewBox="0 0 319 173" fill="none" xmlns="http://www.w3.org/2000/svg">
<path d="M71.5 131.9C68.5 131.9 65.7 131.4 63.1 130.2C60.5 129 58.2 127.4 56.3 125.4C54.3 123.4 52.8 121.1 51.7 118.5C50.5 115.9 50 113.1 50 110.1V83.4H59.2V111.1C59.2 112.9 59.5 114.6 60.2 116.2C60.9 117.8 61.9 119.2 63.1 120.4C64.3 121.6 65.7 122.5 67.3 123.1C68.9 123.8 70.6 124.1 72.4 124.1H82.9C84.7 124.1 86.4 123.8 88 123.1C89.6 122.5 91 121.6 92.2 120.4C93.4 119.2 94.3 117.8 95 116.2C95.7 114.6 96.1 112.9 96.1 111.1V94.6C96.1 91.7 96.7 88.9 97.9 86.3C99.1 83.7 100.7 81.5 102.8 79.5C104.8 77.6 107.2 76.1 109.9 75C112.6 73.9 115.4 73.3 118.4 73.3H128.3V88.9C128.3 90.7 128.6 92.5 129.3 94.3C130 96.1 130.9 97.6 132.1 98.9C133.3 100.3 134.7 101.4 136.3 102.2C137.9 103 139.6 103.4 141.4 103.4H144.8V111H140.5C137.5 111 134.7 110.4 132.1 109.1C129.5 107.8 127.2 106.1 125.3 103.9C123.3 101.8 121.8 99.3 120.7 96.5C119.5 93.7 119 90.9 119 87.9V80.9H118.3C116.5 80.9 114.8 81.4 113.2 82.2C111.6 83.1 110.2 84.2 109 85.6C107.8 87 106.9 88.6 106.3 90.4C105.6 92.2 105.3 93.9 105.3 95.6V110.1C105.3 113.1 104.7 115.9 103.6 118.5C102.4 121.1 100.9 123.4 98.9 125.4C96.9 127.4 94.7 129 92.1 130.2C89.5 131.4 86.7 131.9 83.8 131.9H71.5ZM65.4 146.7C65.4 145.1 65.9 143.8 67.1 142.6C68.2 141.5 69.5 140.9 71.1 140.9C72.7 140.9 74 141.5 75.2 142.6C76.3 143.8 76.9 145.1 76.9 146.7C76.9 148.3 76.3 149.6 75.2 150.7C74 151.9 72.7 152.4 71.1 152.4C69.5 152.4 68.2 151.9 67.1 150.7C65.9 149.6 65.4 148.3 65.4 146.7ZM80.8 146.7C80.8 145.1 81.3 143.8 82.5 142.6C83.6 141.5 84.9 140.9 86.5 140.9C88.1 140.9 89.4 141.5 90.6 142.6C91.7 143.8 92.3 145.1 92.3 146.7C92.3 148.3 91.7 149.6 90.6 150.7C89.4 151.9 88.1 152.4 86.5 152.4C84.9 152.4 83.6 151.9 82.5 150.7C81.3 149.6 80.8 148.3 80.8 146.7ZM143.045 103.2H155.645C153.945 101 152.745 98.7 152.045 96.2C151.345 93.7 151.045 91.6 151.045 89.8C151.045 86.6 151.645 83.6 152.845 81C154.045 78.4 155.745 76.1 157.745 74.2C159.745 72.4 162.145 70.9 164.745 69.9C167.345 68.9 170.145 68.4 173.045 68.4C175.345 68.4 177.645 68.8 180.045 69.5C182.345 70.2 184.545 71.3 186.745 72.8L181.245 78.2C178.645 76.6 175.845 75.7 172.845 75.7C171.045 75.7 169.345 76 167.745 76.6C166.145 77.2 164.645 78 163.445 79.1C162.145 80.3 161.145 81.7 160.345 83.3C159.545 84.9 159.245 86.8 159.245 88.8C159.245 90.6 159.545 92.3 160.245 94C160.845 95.8 161.845 97.3 163.045 98.7C164.245 100.1 165.645 101.2 167.245 102C168.845 102.8 170.545 103.2 172.345 103.2H187.645V111H143.045V103.2ZM218.211 103.2H247.511V88.8C247.511 87 247.111 85.3 246.411 83.7C245.711 82.1 244.811 80.8 243.611 79.6C242.411 78.4 241.111 77.5 239.511 76.8C237.911 76.2 236.211 75.8 234.411 75.8H224.511V68.9H235.311C238.211 68.9 241.011 69.5 243.611 70.5C246.211 71.6 248.411 73.1 250.411 75C252.411 76.9 253.911 79.1 255.111 81.6C256.211 84.2 256.811 86.9 256.811 89.8V103.2H267.511V111H218.211V103.2ZM279.302 73.3H288.602V93C288.602 96.2 288.102 99 287.102 101.2C286.102 103.5 284.902 105.4 283.302 106.8C281.702 108.2 279.902 109.3 277.902 110C275.902 110.7 273.802 111 271.602 111H265.702V103.2H268.602C270.802 103.2 272.502 103 273.902 102.6C275.302 102.2 276.402 101.6 277.202 100.8C278.002 100 278.502 98.8 278.802 97.4C279.102 96 279.302 94.3 279.302 92.3V73.3ZM267.502 124.7C267.502 123.1 268.002 121.8 269.202 120.6C270.302 119.5 271.602 118.9 273.202 118.9C274.802 118.9 276.102 119.5 277.302 120.6C278.402 121.8 279.002 123.1 279.002 124.7C279.002 126.3 278.402 127.6 277.302 128.7C276.102 129.9 274.802 130.4 273.202 130.4C271.602 130.4 270.302 129.9 269.202 128.7C268.002 127.6 267.502 126.3 267.502 124.7Z" fill="#003912"/>
<path d="M316.55 54H302.25V50.5H306.1C305.55 49.55 305.15 48.7 304.95 48C304.75 47.25 304.7 46.65 304.7 46.15C304.7 45.25 304.85 44.4 305.25 43.55C305.65 42.75 306.2 42 306.85 41.3C307.5 40.65 308.3 40.1 309.2 39.75C310.1 39.35 311.05 39.15 312.05 39.15H315.95V43.25H313.3C311.9 43.25 310.9 43.6 310.25 44.3C309.6 45.05 309.3 45.9 309.3 46.8C309.3 47.75 309.6 48.6 310.2 49.35C310.8 50.1 312 50.5 313.8 50.5H316.55V54Z" fill="#003912"/>
<rect x="198" y="59" width="9" height="52" fill="#003912"/>
<path d="M305 59H314V103C314 107.418 310.418 111 306 111H305V59Z" fill="#003912"/>
<path d="M64.7313 79.1052C65.5887 72.8465 70.9043 66.6734 72.6191 64.9587C82.8217 55.099 83.0789 38.8948 73.2192 28.6921C63.3595 18.4895 47.0696 18.2323 36.8669 28.092C26.6643 37.9517 26.4071 54.2416 36.2668 64.4443L36.8669 65.0444C38.5817 66.6734 43.8973 72.8465 44.7547 79.191C44.9262 81.0772 50.0857 91.1995 50 93H59C59.0857 91.1138 64.5598 80.9914 64.7313 79.1052Z" fill="#FFECBA"/>
<path d="M51 97C50.0569 97 49.7276 85.7077 49.7276 84.7646C49.7276 84.5931 49.4704 69.2463 49.4704 62.3016H49.0417C46.8983 62.3016 45.355 61.7015 44.3262 60.5869C43.3831 59.6438 42.9544 58.272 43.0401 56.643C43.1259 55.2712 43.8118 52.1847 48.4415 52.1847C49.8133 52.1847 50.9279 52.5277 51.6138 53.2993C52.8998 54.5853 52.8998 56.4716 52.8141 58.7007V58.7864H56.2436V57.5861C56.2436 54.1567 58.2155 52.2705 61.7307 52.2705C63.1882 52.2705 64.3885 52.8706 65.2459 53.8995C65.9318 54.7568 66.3605 55.9571 66.3605 57.1574C66.3605 59.7295 64.6458 62.3874 61.5592 62.3874H59.673V84.7646C59.673 85.7077 58.4431 97 57.5 97C56.5569 97 56.2436 85.7077 56.2436 84.7646V62.3874H52.8141C52.8998 69.2463 53.0713 84.5931 53.0713 84.7646C53.1571 85.7077 52.0288 97 51 97ZM59.7588 58.9579H61.645C62.7595 58.9579 63.0168 57.6719 63.0168 57.1574C63.0168 56.7288 62.931 56.3001 62.6738 56.0429C62.5881 55.8714 62.3309 55.6999 61.8164 55.6999C60.016 55.6999 59.7588 56.1286 59.7588 57.5861V58.9579ZM48.4415 55.6999C46.5553 55.6999 46.5553 56.3001 46.4696 56.986C46.4696 57.5861 46.5553 58.1005 46.8125 58.3578C47.1555 58.7007 48.0129 58.9579 49.0417 58.9579H49.4704V58.8722C49.4704 57.7576 49.4704 56.1286 49.2132 55.8714C49.1274 55.7857 48.956 55.6999 48.4415 55.6999ZM35.7525 47.8122C34.8094 47.8122 34.0378 47.0405 34.0378 46.0974C34.0378 35.4661 42.7829 26.721 53.5 26.721C54.4431 26.721 55.2147 27.4926 55.2147 28.4357C55.2147 29.3788 54.4431 30.1504 53.5 30.1504C44.6691 30.1504 37.4673 37.3523 37.4673 46.0974C37.4673 47.0405 36.6956 47.8122 35.7525 47.8122ZM16.4618 48.7553H10.6317C9.68862 48.7553 8.91699 47.9836 8.91699 47.0405C8.91699 46.0974 9.68862 45.3258 10.6317 45.3258H16.4618C17.4049 45.3258 18.1765 46.0974 18.1765 47.0405C18.1765 47.9836 17.4049 48.7553 16.4618 48.7553ZM99.3691 48.7553H93.539C92.5959 48.7553 91.8242 47.9836 91.8242 47.0405C91.8242 46.0974 92.5959 45.3258 93.539 45.3258H99.3691C100.312 45.3258 101.084 46.0974 101.084 47.0405C101.084 47.9836 100.312 48.7553 99.3691 48.7553ZM55.0433 10.1738C54.1002 10.1738 53.3285 9.40218 53.3285 8.45908V2.71473C53.3285 1.77163 54.1002 1 55.0433 1C55.9864 1 56.758 1.77163 56.758 2.71473V8.54482C56.758 9.48792 55.9864 10.1738 55.0433 10.1738Z" fill="#003912"/>
<path d="M25.2061 23.0351C24.7774 23.0351 24.3487 22.8636 24.0058 22.5206L19.8904 18.4053C19.2045 17.7194 19.2045 16.6905 19.8904 16.0047C20.5763 15.3188 21.6051 15.3188 22.291 16.0047L26.4064 20.12C27.0923 20.8059 27.0923 21.8347 26.4064 22.5206C26.0634 22.8636 25.6347 23.0351 25.2061 23.0351Z" fill="#003912"/>
<path d="M83.9364 23.0351C83.5077 23.0351 83.079 22.8636 82.7361 22.5206C82.0502 21.8347 82.0502 20.8059 82.7361 20.12L86.8515 16.0047C87.5373 15.3188 88.5662 15.3188 89.2521 16.0047C89.938 16.6905 89.938 17.7194 89.2521 18.4053L85.1367 22.5206C84.7938 22.8636 84.3651 23.0351 83.9364 23.0351Z" fill="#003912"/>
<path d="M137.155 128.085C137.155 127.83 137.245 127.605 137.425 127.425C137.605 127.245 137.815 127.14 138.085 127.14C138.34 127.14 138.565 127.245 138.745 127.425C138.925 127.605 139.03 127.83 139.03 128.085C139.03 128.355 138.925 128.565 138.745 128.745C138.565 128.925 138.34 129.015 138.085 129.015C137.815 129.015 137.605 128.925 137.425 128.745C137.245 128.565 137.155 128.355 137.155 128.085ZM141.359 128.085C141.359 127.83 141.449 127.605 141.629 127.425C141.809 127.245 142.019 127.14 142.289 127.14C142.544 127.14 142.769 127.245 142.949 127.425C143.129 127.605 143.234 127.83 143.234 128.085C143.234 128.355 143.129 128.565 142.949 128.745C142.769 128.925 142.544 129.015 142.289 129.015C142.019 129.015 141.809 128.925 141.629 128.745C141.449 128.565 141.359 128.355 141.359 128.085ZM145.563 128.085C145.563 127.83 145.653 127.605 145.833 127.425C146.013 127.245 146.223 127.14 146.493 127.14C146.748 127.14 146.973 127.245 147.153 127.425C147.333 127.605 147.438 127.83 147.438 128.085C147.438 128.355 147.333 128.565 147.153 128.745C146.973 128.925 146.748 129.015 146.493 129.015C146.223 129.015 146.013 128.925 145.833 128.745C145.653 128.565 145.563 128.355 145.563 128.085ZM149.092 133.68V130.995C149.092 130.56 149.152 130.155 149.302 129.765C149.437 129.375 149.647 129.045 149.917 128.76C150.187 128.475 150.532 128.25 150.937 128.085C151.327 127.92 151.792 127.83 152.317 127.83H152.377V125.82C152.377 125.385 152.452 124.965 152.632 124.575C152.797 124.185 153.022 123.825 153.322 123.525C153.607 123.225 153.952 123 154.342 122.82C154.732 122.64 155.152 122.55 155.602 122.55C156.082 122.55 156.532 122.64 156.952 122.82C157.357 123 157.702 123.225 158.002 123.525C158.302 123.825 158.527 124.185 158.692 124.575C158.857 124.965 158.947 125.385 158.947 125.82C158.947 126.18 158.887 126.525 158.767 126.855C158.647 127.185 158.497 127.47 158.302 127.725L158.557 127.8C158.647 127.83 158.767 127.83 158.887 127.83H160.117V129H159.457C159.052 129 158.722 128.955 158.452 128.865C158.182 128.775 157.927 128.61 157.672 128.355C157.402 128.535 157.102 128.685 156.742 128.805C156.382 128.94 156.052 129 155.722 129H152.377C152.107 129.015 151.867 129.06 151.642 129.15C151.402 129.24 151.207 129.375 151.042 129.525C150.862 129.69 150.727 129.885 150.637 130.11C150.532 130.335 150.487 130.575 150.487 130.845V133.68H149.092ZM157.582 125.67C157.582 125.4 157.537 125.145 157.447 124.905C157.357 124.665 157.222 124.47 157.072 124.29C156.907 124.11 156.712 123.975 156.487 123.87C156.247 123.78 156.007 123.72 155.737 123.72C155.467 123.72 155.212 123.78 154.972 123.87C154.732 123.975 154.522 124.11 154.342 124.29C154.162 124.47 154.027 124.665 153.922 124.905C153.817 125.145 153.772 125.4 153.772 125.67V127.83H155.737C156.007 127.83 156.247 127.785 156.487 127.68C156.712 127.575 156.907 127.425 157.072 127.23C157.222 127.035 157.357 126.81 157.447 126.54C157.537 126.285 157.582 126 157.582 125.67ZM161.884 117.135H163.279V126.3C163.279 126.78 163.204 127.2 163.054 127.53C162.904 127.875 162.724 128.16 162.484 128.37C162.244 128.58 161.974 128.745 161.674 128.85C161.374 128.955 161.059 129 160.729 129H159.844V127.83H160.279C160.609 127.83 160.864 127.8 161.074 127.74C161.284 127.68 161.449 127.59 161.569 127.47C161.689 127.35 161.764 127.17 161.809 126.96C161.854 126.75 161.884 126.495 161.884 126.195V117.135ZM166.627 126.195C166.627 126.495 166.642 126.75 166.687 126.96C166.732 127.17 166.822 127.35 166.942 127.47C167.062 127.59 167.212 127.68 167.422 127.74C167.632 127.8 167.902 127.83 168.232 127.83H168.532L168.547 129H167.782C167.452 129 167.122 128.955 166.822 128.85C166.522 128.745 166.252 128.58 166.012 128.37C165.772 128.16 165.592 127.875 165.442 127.53C165.292 127.2 165.232 126.78 165.232 126.3V117.135H166.627V126.195ZM176.592 129H168.282V127.83H170.847C170.427 127.47 170.082 127.14 169.827 126.825C169.572 126.525 169.377 126.24 169.242 125.985C169.107 125.73 169.017 125.505 168.972 125.31C168.927 125.115 168.912 124.95 168.912 124.815C168.912 124.395 169.002 124.035 169.197 123.735C169.392 123.435 169.647 123.195 169.977 123.015C170.307 122.835 170.682 122.715 171.102 122.64C171.522 122.565 171.972 122.52 172.437 122.52C172.887 122.52 173.337 122.565 173.772 122.64C174.207 122.715 174.597 122.835 174.927 123.015C175.257 123.195 175.527 123.435 175.737 123.735C175.932 124.035 176.037 124.395 176.037 124.815C176.037 125.31 175.887 125.79 175.587 126.255C175.287 126.72 174.807 127.245 174.147 127.83H176.592V129ZM172.287 123.66C171.852 123.66 171.492 123.705 171.222 123.795C170.952 123.885 170.727 123.99 170.577 124.11C170.412 124.245 170.307 124.395 170.247 124.56C170.187 124.725 170.157 124.89 170.157 125.04C170.157 125.19 170.187 125.325 170.247 125.445C170.307 125.58 170.412 125.745 170.577 125.94C170.742 126.15 170.982 126.39 171.282 126.69L172.467 127.83L173.652 126.705C173.952 126.405 174.177 126.165 174.342 125.955C174.507 125.76 174.627 125.595 174.687 125.46C174.747 125.325 174.777 125.19 174.777 125.04C174.777 124.89 174.732 124.725 174.672 124.56C174.612 124.395 174.492 124.245 174.312 124.11C174.132 123.99 173.877 123.885 173.547 123.795C173.217 123.705 172.797 123.66 172.287 123.66ZM178.364 117.135H179.759V126.3C179.759 126.78 179.684 127.2 179.534 127.53C179.384 127.875 179.204 128.16 178.964 128.37C178.724 128.58 178.454 128.745 178.154 128.85C177.854 128.955 177.539 129 177.209 129H176.324V127.83H176.759C177.089 127.83 177.344 127.8 177.554 127.74C177.764 127.68 177.929 127.59 178.049 127.47C178.169 127.35 178.244 127.17 178.289 126.96C178.334 126.75 178.364 126.495 178.364 126.195V117.135ZM183.106 126.195C183.106 126.495 183.121 126.75 183.166 126.96C183.211 127.17 183.301 127.35 183.421 127.47C183.541 127.59 183.691 127.68 183.901 127.74C184.111 127.8 184.381 127.83 184.711 127.83H185.011L185.026 129H184.261C183.931 129 183.601 128.955 183.301 128.85C183.001 128.745 182.731 128.58 182.491 128.37C182.251 128.16 182.071 127.875 181.921 127.53C181.771 127.2 181.711 126.78 181.711 126.3V117.135H183.106V126.195ZM186.801 123.345H188.196V126.3C188.196 126.78 188.121 127.2 187.971 127.53C187.821 127.875 187.641 128.16 187.401 128.37C187.161 128.58 186.891 128.745 186.591 128.85C186.291 128.955 185.976 129 185.646 129H184.761V127.83H185.196C185.526 127.83 185.781 127.8 185.991 127.74C186.201 127.68 186.366 127.59 186.486 127.47C186.606 127.35 186.681 127.17 186.726 126.96C186.771 126.75 186.801 126.495 186.801 126.195V123.345ZM185.031 131.055C185.031 130.815 185.106 130.62 185.286 130.44C185.451 130.275 185.646 130.185 185.886 130.185C186.126 130.185 186.321 130.275 186.501 130.44C186.666 130.62 186.756 130.815 186.756 131.055C186.756 131.295 186.666 131.49 186.501 131.655C186.321 131.835 186.126 131.91 185.886 131.91C185.646 131.91 185.451 131.835 185.286 131.655C185.106 131.49 185.031 131.295 185.031 131.055ZM194.319 126.195C194.319 126.495 194.334 126.75 194.379 126.96C194.424 127.17 194.514 127.35 194.634 127.47C194.754 127.59 194.904 127.68 195.114 127.74C195.324 127.8 195.594 127.83 195.924 127.83H201.819V117.135H203.214V127.83H205.074V129H195.474C195.144 129 194.814 128.955 194.514 128.85C194.214 128.745 193.944 128.58 193.704 128.37C193.464 128.16 193.284 127.875 193.134 127.53C192.984 127.2 192.924 126.78 192.924 126.3V123.345H194.319V126.195ZM200.109 123.45H196.749V122.625H197.649C197.514 122.415 197.424 122.22 197.379 122.04C197.334 121.86 197.319 121.725 197.319 121.605C197.319 121.395 197.364 121.2 197.454 120.99C197.544 120.795 197.664 120.615 197.829 120.465C197.979 120.315 198.159 120.18 198.369 120.09C198.579 120 198.804 119.955 199.044 119.955H199.974V120.915H199.344C199.014 120.915 198.774 121.005 198.624 121.17C198.474 121.335 198.399 121.53 198.399 121.755C198.399 121.995 198.474 122.19 198.624 122.37C198.774 122.55 199.044 122.625 199.464 122.625H200.109V123.45ZM204.801 127.83H206.541C206.301 127.56 206.121 127.26 206.001 126.915C205.881 126.57 205.821 126.21 205.821 125.82C205.821 125.385 205.896 124.965 206.061 124.575C206.226 124.185 206.451 123.825 206.751 123.525C207.051 123.225 207.396 123 207.816 122.82C208.221 122.64 208.671 122.55 209.166 122.55C209.601 122.55 210.021 122.64 210.411 122.82C210.801 123 211.131 123.225 211.431 123.525C211.731 123.825 211.956 124.185 212.136 124.575C212.301 124.965 212.391 125.385 212.391 125.82V127.83H213.606V129H204.801V127.83ZM207.186 125.67C207.186 126.3 207.336 126.81 207.666 127.2C207.981 127.605 208.401 127.815 208.941 127.83H210.996V125.67C210.996 125.4 210.936 125.145 210.831 124.905C210.726 124.665 210.591 124.47 210.411 124.29C210.231 124.11 210.036 123.975 209.796 123.87C209.556 123.78 209.301 123.72 209.031 123.72C208.761 123.72 208.506 123.78 208.281 123.87C208.041 123.975 207.846 124.11 207.696 124.29C207.531 124.47 207.411 124.665 207.321 124.905C207.231 125.145 207.186 125.4 207.186 125.67ZM208.401 120.585C208.401 120.345 208.476 120.15 208.656 119.97C208.821 119.805 209.016 119.715 209.256 119.715C209.496 119.715 209.691 119.805 209.871 119.97C210.036 120.15 210.126 120.345 210.126 120.585C210.126 120.825 210.036 121.02 209.871 121.185C209.691 121.365 209.496 121.44 209.256 121.44C209.016 121.44 208.821 121.365 208.656 121.185C208.476 121.02 208.401 120.825 208.401 120.585ZM221.651 129H213.341V127.83H215.906C215.486 127.47 215.141 127.14 214.886 126.825C214.631 126.525 214.436 126.24 214.301 125.985C214.166 125.73 214.076 125.505 214.031 125.31C213.986 125.115 213.971 124.95 213.971 124.815C213.971 124.395 214.061 124.035 214.256 123.735C214.451 123.435 214.706 123.195 215.036 123.015C215.366 122.835 215.741 122.715 216.161 122.64C216.581 122.565 217.031 122.52 217.496 122.52C217.946 122.52 218.396 122.565 218.831 122.64C219.266 122.715 219.656 122.835 219.986 123.015C220.316 123.195 220.586 123.435 220.796 123.735C220.991 124.035 221.096 124.395 221.096 124.815C221.096 125.31 220.946 125.79 220.646 126.255C220.346 126.72 219.866 127.245 219.206 127.83H221.651V129ZM217.346 123.66C216.911 123.66 216.551 123.705 216.281 123.795C216.011 123.885 215.786 123.99 215.636 124.11C215.471 124.245 215.366 124.395 215.306 124.56C215.246 124.725 215.216 124.89 215.216 125.04C215.216 125.19 215.246 125.325 215.306 125.445C215.366 125.58 215.471 125.745 215.636 125.94C215.801 126.15 216.041 126.39 216.341 126.69L217.526 127.83L218.711 126.705C219.011 126.405 219.236 126.165 219.401 125.955C219.566 125.76 219.686 125.595 219.746 125.46C219.806 125.325 219.836 125.19 219.836 125.04C219.836 124.89 219.791 124.725 219.731 124.56C219.671 124.395 219.551 124.245 219.371 124.11C219.191 123.99 218.936 123.885 218.606 123.795C218.276 123.705 217.856 123.66 217.346 123.66ZM216.686 120.585C216.686 120.345 216.761 120.15 216.941 119.97C217.106 119.805 217.301 119.715 217.541 119.715C217.781 119.715 217.976 119.805 218.156 119.97C218.321 120.15 218.411 120.345 218.411 120.585C218.411 120.825 218.321 121.02 218.156 121.185C217.976 121.365 217.781 121.44 217.541 121.44C217.301 121.44 217.106 121.365 216.941 121.185C216.761 121.02 216.686 120.825 216.686 120.585ZM225.868 127.83C226.198 127.83 226.453 127.8 226.663 127.74C226.873 127.68 227.038 127.59 227.158 127.47C227.278 127.35 227.353 127.17 227.398 126.96C227.443 126.75 227.473 126.495 227.473 126.195V123.345H228.868V126.81C228.868 127.17 228.943 127.425 229.093 127.59C229.243 127.755 229.498 127.83 229.888 127.83C230.218 127.83 230.473 127.8 230.683 127.74C230.893 127.68 231.058 127.59 231.178 127.47C231.298 127.35 231.373 127.17 231.418 126.96C231.463 126.75 231.493 126.495 231.493 126.195V123.345H232.888V126.3C232.888 126.78 232.813 127.185 232.678 127.515C232.528 127.86 232.348 128.145 232.108 128.355C231.868 128.58 231.598 128.745 231.298 128.85C230.998 128.955 230.683 129 230.368 129C229.948 129 229.558 128.94 229.213 128.82C228.868 128.7 228.568 128.46 228.328 128.1C228.088 128.43 227.788 128.655 227.428 128.79C227.068 128.94 226.708 129 226.318 129C225.898 129 225.508 128.94 225.163 128.82C224.818 128.7 224.518 128.46 224.278 128.1C224.038 128.43 223.738 128.655 223.378 128.79C223.018 128.94 222.658 129 222.268 129H221.383V127.83H221.818C222.148 127.83 222.403 127.8 222.613 127.74C222.823 127.68 222.988 127.59 223.108 127.47C223.228 127.35 223.303 127.17 223.348 126.96C223.393 126.75 223.423 126.495 223.423 126.195V123.345H224.818V126.81C224.818 127.17 224.893 127.425 225.043 127.59C225.193 127.755 225.448 127.83 225.838 127.83H225.868ZM226.183 120.57C226.183 120.33 226.258 120.135 226.438 119.955C226.603 119.79 226.798 119.7 227.038 119.7C227.278 119.7 227.473 119.79 227.653 119.955C227.818 120.135 227.908 120.33 227.908 120.57C227.908 120.81 227.818 121.005 227.653 121.17C227.473 121.35 227.278 121.425 227.038 121.425C226.798 121.425 226.603 121.35 226.438 121.17C226.258 121.005 226.183 120.81 226.183 120.57ZM228.493 120.57C228.493 120.33 228.568 120.135 228.748 119.955C228.913 119.79 229.108 119.7 229.348 119.7C229.588 119.7 229.783 119.79 229.963 119.955C230.128 120.135 230.218 120.33 230.218 120.57C230.218 120.81 230.128 121.005 229.963 121.17C229.783 121.35 229.588 121.425 229.348 121.425C229.108 121.425 228.913 121.35 228.748 121.17C228.568 121.005 228.493 120.81 228.493 120.57ZM227.278 118.65C227.278 118.41 227.353 118.215 227.533 118.035C227.698 117.87 227.893 117.78 228.133 117.78C228.373 117.78 228.568 117.87 228.748 118.035C228.913 118.215 229.003 118.41 229.003 118.65C229.003 118.89 228.913 119.085 228.748 119.25C228.568 119.43 228.373 119.505 228.133 119.505C227.893 119.505 227.698 119.43 227.533 119.25C227.353 119.085 227.278 118.89 227.278 118.65ZM245.7 128.865C245.7 129.315 245.61 129.735 245.445 130.125C245.265 130.515 245.04 130.86 244.74 131.16C244.44 131.46 244.11 131.7 243.72 131.88C243.33 132.06 242.91 132.135 242.475 132.135H240.885C240.435 132.135 240.015 132.06 239.625 131.88C239.235 131.7 238.89 131.46 238.605 131.16C238.305 130.86 238.08 130.515 237.915 130.125C237.735 129.735 237.66 129.315 237.66 128.865V124.86H239.04V129.015C239.04 129.285 239.085 129.54 239.19 129.78C239.295 130.02 239.445 130.23 239.625 130.41C239.805 130.59 240.015 130.725 240.255 130.815C240.495 130.92 240.75 130.965 241.02 130.965H242.34C242.61 130.965 242.865 130.92 243.105 130.815C243.345 130.725 243.555 130.59 243.735 130.41C243.915 130.23 244.05 130.02 244.155 129.78C244.26 129.54 244.32 129.285 244.32 129.015V117.135H245.7V126.69C245.7 127.095 245.775 127.38 245.94 127.56C246.105 127.74 246.405 127.83 246.84 127.83H247.965V129H247.41C247.02 129 246.705 128.955 246.435 128.865C246.165 128.775 245.925 128.595 245.7 128.34V128.865ZM251.846 130.86L248.321 131.49V130.905L251.846 130.275V130.86ZM247.691 127.83H249.566V122.805H250.961V125.52C251.411 124.95 251.846 124.485 252.266 124.095C252.686 123.705 253.091 123.405 253.496 123.18C253.886 122.955 254.276 122.79 254.666 122.7C255.056 122.61 255.446 122.55 255.836 122.55C256.271 122.55 256.691 122.64 257.081 122.82C257.471 123 257.801 123.225 258.101 123.525C258.401 123.825 258.626 124.185 258.806 124.575C258.971 124.965 259.061 125.385 259.061 125.82V129H247.691V127.83ZM255.701 123.69C255.461 123.69 255.191 123.735 254.861 123.825C254.531 123.915 254.156 124.08 253.736 124.335C253.316 124.59 252.881 124.95 252.416 125.415C251.936 125.895 251.456 126.51 250.961 127.29V127.83H257.666V125.67C257.666 125.4 257.606 125.13 257.501 124.89C257.396 124.65 257.261 124.44 257.081 124.26C256.901 124.08 256.706 123.945 256.466 123.84C256.226 123.75 255.971 123.69 255.701 123.69Z" fill="#003912"/>
</svg>
