<svg width="112" height="19" viewBox="0 0 112 19" fill="none" xmlns="http://www.w3.org/2000/svg">
<path d="M91.6037 18.1969C90.587 18.1969 89.6204 18.1719 88.7037 18.1219C87.8037 18.0719 87.087 18.0135 86.5537 17.9469V0.546875C87.137 0.480208 87.862 0.421875 88.7287 0.371874C89.5954 0.321875 90.587 0.296875 91.7037 0.296875C93.837 0.296875 95.4787 0.705208 96.6287 1.52187C97.7787 2.32188 98.3537 3.41354 98.3537 4.79688C98.3537 5.71354 98.1037 6.49687 97.6037 7.14687C97.1204 7.78021 96.412 8.30521 95.4787 8.72187C96.612 9.12187 97.4704 9.68021 98.0537 10.3969C98.637 11.0969 98.9287 11.9635 98.9287 12.9969C98.9287 14.5802 98.3037 15.8469 97.0537 16.7969C95.8037 17.7302 93.987 18.1969 91.6037 18.1969ZM88.9287 8.04687H91.6787C92.9954 8.04687 94.037 7.77187 94.8037 7.22187C95.587 6.67187 95.9787 5.96354 95.9787 5.09687C95.9787 4.16354 95.5954 3.45521 94.8287 2.97188C94.062 2.47187 93.012 2.22187 91.6787 2.22187C91.1287 2.22187 90.6287 2.23854 90.1787 2.27187C89.7287 2.28854 89.312 2.31354 88.9287 2.34687V8.04687ZM91.7787 16.2219C93.262 16.2219 94.4204 15.9552 95.2537 15.4219C96.087 14.8885 96.5037 14.1135 96.5037 13.0969C96.5037 12.0969 96.0954 11.3135 95.2787 10.7469C94.462 10.1802 93.2954 9.89688 91.7787 9.89688H88.9287V16.0719C89.812 16.1719 90.762 16.2219 91.7787 16.2219Z" fill="black"/>
<path d="M74.7852 18.3031C73.4852 18.3031 72.3268 18.0698 71.3102 17.6031C70.2935 17.1198 69.4268 16.4698 68.7102 15.6531C68.0102 14.8198 67.4685 13.8531 67.0852 12.7531C66.7185 11.6531 66.5352 10.4781 66.5352 9.22812C66.5352 7.51146 66.8602 5.97812 67.5102 4.62812C68.1768 3.26146 69.1268 2.18646 70.3602 1.40312C71.5935 0.603125 73.0685 0.203125 74.7852 0.203125C76.0685 0.203125 77.2185 0.436458 78.2352 0.903125C79.2685 1.36979 80.1435 2.01979 80.8602 2.85313C81.5768 3.68646 82.1185 4.64479 82.4852 5.72812C82.8685 6.81146 83.0602 7.97812 83.0602 9.22812C83.0602 10.4781 82.8685 11.6531 82.4852 12.7531C82.1185 13.8531 81.5768 14.8198 80.8602 15.6531C80.1435 16.4698 79.2768 17.1198 78.2602 17.6031C77.2435 18.0698 76.0852 18.3031 74.7852 18.3031ZM74.7852 16.2531C76.0685 16.2531 77.1435 15.9448 78.0102 15.3281C78.8768 14.7115 79.5268 13.8781 79.9602 12.8281C80.4102 11.7615 80.6352 10.5615 80.6352 9.22812C80.6352 8.32812 80.5018 7.46146 80.2352 6.62813C79.9685 5.79479 79.5852 5.05313 79.0852 4.40312C78.5852 3.73646 77.9685 3.21146 77.2352 2.82812C76.5185 2.44479 75.7018 2.25312 74.7852 2.25312C73.5685 2.25312 72.5185 2.56146 71.6352 3.17812C70.7685 3.79479 70.1018 4.62812 69.6352 5.67812C69.1852 6.72812 68.9602 7.91146 68.9602 9.22812C68.9602 10.1281 69.0852 11.0031 69.3352 11.8531C69.6018 12.6865 69.9852 13.4365 70.4852 14.1031C70.9852 14.7698 71.5935 15.2948 72.3102 15.6781C73.0435 16.0615 73.8685 16.2531 74.7852 16.2531Z" fill="black"/>
<path d="M58.393 18.3C57.6263 18.3 56.9013 18.1667 56.218 17.9C55.5513 17.6333 54.993 17.2833 54.543 16.85L55.693 15.025C56.0263 15.375 56.4263 15.6667 56.893 15.9C57.3596 16.1333 57.8346 16.25 58.318 16.25C59.118 16.25 59.7513 15.9667 60.218 15.4C60.6846 14.8167 60.918 13.8417 60.918 12.475V0.5H63.293V12.225C63.293 14.3417 62.843 15.8833 61.943 16.85C61.043 17.8167 59.8596 18.3 58.393 18.3Z" fill="black"/>
<path d="M42.9258 18V0.5H53.4258V2.55H45.3008V7.875H52.3008V9.875H45.3008V15.95H53.4258V18H42.9258Z" fill="black"/>
<path d="M29.0586 18V0.5H39.5586V2.55H31.4336V7.875H38.4336V9.875H31.4336V15.95H39.5586V18H29.0586Z" fill="black"/>
<path d="M23.8289 18.2969L21.6539 13.5469C21.1039 12.3635 20.4122 11.5219 19.5789 11.0219C18.7456 10.5219 17.6789 10.2719 16.3789 10.2719H16.0039V17.9969H13.6289V0.546875C14.5122 0.463542 15.3539 0.405208 16.1539 0.371874C16.9706 0.321875 17.8372 0.296875 18.7539 0.296875C20.8872 0.296875 22.4872 0.730208 23.5539 1.59687C24.6372 2.46354 25.1789 3.58021 25.1789 4.94688C25.1789 6.16354 24.8122 7.14687 24.0789 7.89687C23.3622 8.63021 22.3206 9.18021 20.9539 9.54688C21.4039 9.74688 21.8039 9.98854 22.1539 10.2719C22.5039 10.5385 22.8372 10.9052 23.1539 11.3719C23.4872 11.8219 23.8206 12.4135 24.1539 13.1469L26.0539 17.2469L23.8289 18.2969ZM16.0039 8.27187H18.7539C19.9539 8.27187 20.9289 8.00521 21.6789 7.47187C22.4289 6.93854 22.8039 6.17187 22.8039 5.17187C22.8039 4.33854 22.4539 3.65521 21.7539 3.12187C21.0539 2.57187 20.0539 2.29687 18.7539 2.29687C18.1872 2.29687 17.6789 2.30521 17.2289 2.32187C16.7789 2.33854 16.3706 2.36354 16.0039 2.39687V8.27187Z" fill="black"/>
<path d="M0.25 18V0.5H10.625V2.55H2.625V7.9H9.3V9.85H2.625V18H0.25Z" fill="black"/>
<path d="M107.629 12.9547C109.629 12.9547 111.329 11.2547 111.329 9.25469C111.329 7.25469 109.629 5.55469 107.629 5.55469C105.629 5.55469 103.929 7.25469 103.929 9.25469C103.929 11.2547 105.629 12.9547 107.629 12.9547Z" fill="#1DBF73"/>
</svg>
