<svg width="86" height="86" viewBox="0 0 86 86" fill="none" xmlns="http://www.w3.org/2000/svg">
<g clip-path="url(#clip0_768_2)">
<path d="M45 82C67.6437 82 86 63.6437 86 41C86 18.3563 67.6437 0 45 0C22.3563 0 4 18.3563 4 41C4 63.6437 22.3563 82 45 82Z" fill="white"/>
<path d="M86.0001 43C86.0001 35.6395 84.1107 28.4022 80.5128 21.981C76.9148 15.5597 71.7288 10.1696 65.4512 6.32651C59.1737 2.48343 52.0147 0.316113 44.6596 0.0320413C37.3046 -0.252031 29.9998 1.35666 23.4445 4.70409L26.6894 11.0586C32.157 8.26666 38.2497 6.92492 44.3843 7.16185C50.5189 7.39879 56.4899 9.20647 61.7259 12.4118C66.9618 15.6172 71.2873 20.113 74.2882 25.4687C77.2891 30.8244 78.865 36.8608 78.865 43H86.0001Z" fill="#B4580D"/>
</g>
<defs>
<clipPath id="clip0_768_2">
<rect width="86" height="86" fill="white"/>
</clipPath>
</defs>
</svg>
